<svg xmlns="http://www.w3.org/2000/svg" xmlns:xlink="http://www.w3.org/1999/xlink" width="3000" zoomAndPan="magnify" viewBox="0 0 2250 2250.000011" height="3000" preserveAspectRatio="xMidYMid meet" version="1.0"><defs><g/><clipPath id="4e1c4698f6"><path d="M 0.5 0 L 2249.5 0 L 2249.5 2249 L 0.5 2249 Z M 0.5 0 " clip-rule="nonzero"/></clipPath><clipPath id="e0ebef41e2"><path d="M 1032.527344 645.644531 L 1810.074219 645.644531 L 1810.074219 894.648438 L 1032.527344 894.648438 Z M 1032.527344 645.644531 " clip-rule="nonzero"/></clipPath><clipPath id="2f1c928818"><path d="M 0.527344 0.644531 L 778 0.644531 L 778 249.648438 L 0.527344 249.648438 Z M 0.527344 0.644531 " clip-rule="nonzero"/></clipPath><clipPath id="98200898d6"><rect x="0" width="779" y="0" height="250"/></clipPath><clipPath id="dc94b04c35"><path d="M 753 1556 L 2249.5 1556 L 2249.5 2249 L 753 2249 Z M 753 1556 " clip-rule="nonzero"/></clipPath><clipPath id="cf708f0b1c"><path d="M 405.660156 640.757812 L 884 640.757812 L 884 1119 L 405.660156 1119 Z M 405.660156 640.757812 " clip-rule="nonzero"/></clipPath></defs><g clip-path="url(#4e1c4698f6)"><path fill="#ffffff" d="M 0.5 0 L 2249.5 0 L 2249.5 2249 L 0.5 2249 Z M 0.5 0 " fill-opacity="1" fill-rule="nonzero"/><path fill="#4c98a8" d="M 0.5 0 L 2249.5 0 L 2249.5 2249 L 0.5 2249 Z M 0.5 0 " fill-opacity="1" fill-rule="nonzero"/></g><g clip-path="url(#e0ebef41e2)"><g transform="matrix(1, 0, 0, 1, 1032, 645)"><g clip-path="url(#98200898d6)"><g clip-path="url(#2f1c928818)"><path fill="#ffffff" d="M 0.527344 0.644531 L 777.699219 0.644531 L 777.699219 249.648438 L 0.527344 249.648438 Z M 0.527344 0.644531 " fill-opacity="1" fill-rule="nonzero"/></g></g></g></g><g clip-path="url(#dc94b04c35)"><path fill="#ffffff" d="M 1488.585938 1617.417969 C 1075.820312 1761.601562 772.558594 2146.398438 754.214844 2609.765625 C 749.609375 2726.109375 763.371094 2838.953125 792.800781 2945.476562 L 796.269531 2944.296875 C 767.230469 2839.324219 753.988281 2728 759.128906 2613.144531 C 760.246094 2588.140625 762.277344 2563.390625 765.074219 2538.867188 C 849.691406 2552.480469 935.789062 2561.195312 1023.09375 2564.964844 C 1031.070312 2662.128906 1049.234375 2757.542969 1076.03125 2849.246094 L 1078.535156 2848.394531 C 1051.828125 2757.085938 1034.074219 2662.046875 1026.699219 2565.132812 C 1098.308594 2568.109375 1170.738281 2567.730469 1243.765625 2563.746094 C 1292.613281 2561.082031 1340.941406 2556.835938 1388.839844 2551.125 C 1402.898438 2610.1875 1419.058594 2668.828125 1437.15625 2726.546875 L 1438.601562 2726.054688 C 1420.53125 2668.449219 1404.398438 2609.871094 1390.480469 2550.890625 C 1541.078125 2532.808594 1686.757812 2499.910156 1826.089844 2453.734375 L 1899.484375 2662.144531 L 1829.558594 2452.558594 C 1965.519531 2407.253906 2095.460938 2349.355469 2218.019531 2280.238281 C 2240.96875 2331.726562 2262.558594 2384.894531 2282.5 2439.304688 L 2283.945312 2438.816406 C 2263.96875 2384.320312 2242.351562 2331.058594 2219.464844 2279.425781 C 2318.132812 2223.6875 2412.050781 2160.722656 2500.488281 2091.246094 C 2546.136719 2164.140625 2585.65625 2242.734375 2617.785156 2325.382812 L 2620.484375 2324.464844 C 2588.191406 2241.453125 2548.742188 2162.4375 2503.277344 2089.007812 C 2563.132812 2041.832031 2620.519531 1991.671875 2675.144531 1938.777344 C 2753.890625 2028.144531 2817.746094 2130.484375 2863.035156 2242.050781 L 2866.601562 2240.839844 C 2709.515625 1854.203125 2337.585938 1574.820312 1893.441406 1557.261719 C 1781.695312 1552.835938 1673.222656 1565.316406 1570.417969 1592.390625 C 1561.613281 1594.488281 1552.90625 1596.765625 1544.246094 1599.242188 C 1537.550781 1600.847656 1530.96875 1602.847656 1524.546875 1605.183594 C 1524.03125 1605.367188 1523.546875 1605.613281 1523.035156 1605.800781 C 1518.457031 1607.296875 1513.847656 1608.757812 1509.3125 1610.359375 C 1508.417969 1610.671875 1507.542969 1611.050781 1506.648438 1611.371094 C 1500.621094 1613.359375 1494.566406 1615.3125 1488.585938 1617.398438 Z M 1525.074219 1624.160156 C 1527.699219 1623.328125 1530.316406 1622.511719 1532.949219 1621.699219 L 1577.238281 1747.300781 C 1511.910156 1768.339844 1446.078125 1784.605469 1380.121094 1796.324219 C 1412.9375 1708.628906 1462.261719 1649.136719 1525.074219 1624.164062 Z M 1550.402344 1616.414062 C 1552 1615.949219 1553.621094 1615.554688 1555.222656 1615.097656 C 1600.632812 1605.535156 1652.007812 1612.257812 1708.546875 1637.519531 C 1728.597656 1646.480469 1748.726562 1657.585938 1768.917969 1670.5625 C 1714.730469 1696.714844 1658.464844 1719.917969 1600.15625 1739.734375 C 1597.574219 1740.609375 1594.988281 1741.398438 1592.410156 1742.257812 L 1550.402344 1616.417969 Z M 1449.90625 1654.539062 C 1416.152344 1689.03125 1388.78125 1737.519531 1368.734375 1798.253906 C 1326.851562 1805.359375 1284.882812 1810.605469 1243.027344 1814.082031 C 1302.554688 1746.441406 1372.289062 1692.394531 1449.90625 1654.539062 Z M 1633.105469 1598.417969 C 1693.167969 1589.898438 1756.082031 1589.898438 1821.144531 1599.257812 C 1841.195312 1602.144531 1861.09375 1605.933594 1880.871094 1610.472656 C 1847.976562 1629.984375 1814.152344 1648.382812 1779.445312 1665.472656 C 1754.175781 1647.808594 1728.878906 1633.128906 1703.820312 1621.703125 C 1679.253906 1610.5 1655.664062 1602.789062 1633.109375 1598.414062 Z M 1341.671875 1700.882812 C 1298.429688 1733.535156 1258.582031 1771.988281 1222.820312 1815.679688 C 1202.964844 1817.058594 1183.175781 1817.988281 1163.371094 1818.566406 C 1218.660156 1773.882812 1278.375 1734.394531 1341.671875 1700.882812 Z M 1759.457031 1577.207031 C 1804.773438 1573.152344 1850.796875 1571.742188 1897.398438 1573.347656 C 1910.671875 1573.808594 1923.910156 1574.550781 1937.046875 1575.46875 C 1924.167969 1583.910156 1911.128906 1592.199219 1897.945312 1600.261719 C 1871.175781 1593.113281 1844.078125 1587.410156 1816.804688 1583.3125 C 1797.492188 1580.414062 1778.367188 1578.464844 1759.457031 1577.207031 Z M 1146.054688 1832.832031 C 1167.742188 1832.480469 1189.480469 1831.671875 1211.238281 1830.363281 C 1170.496094 1882.738281 1135.296875 1942.105469 1106.5625 2007.441406 C 1066.261719 2005.9375 1026.195312 2002.964844 986.445312 1998.578125 C 1033.714844 1937.945312 1087.246094 1882.359375 1146.050781 1832.835938 Z M 1959.796875 1577.300781 C 2050.667969 1585.53125 2137.988281 1604.671875 2220.59375 1633.421875 C 2191.230469 1657.515625 2160.972656 1680.738281 2129.878906 1702.847656 C 2061.839844 1660.214844 1990.246094 1627.132812 1916.328125 1605.402344 C 1931.003906 1596.257812 1945.511719 1586.90625 1959.796875 1577.300781 Z M 1230.082031 1829.222656 C 1230.101562 1829.195312 1230.160156 1829.214844 1230.179688 1829.191406 C 1274.726562 1825.941406 1319.371094 1820.636719 1364.027344 1813.28125 C 1347.804688 1867.179688 1336.996094 1929.96875 1332.140625 2000.46875 C 1260.210938 2007.582031 1188.664062 2009.960938 1117.847656 2007.796875 C 1148.738281 1941.488281 1186.441406 1881.585938 1230.082031 1829.222656 Z M 1900.398438 1615.21875 C 1976.949219 1634.945312 2051.105469 1666.730469 2121.460938 1708.824219 C 2064.265625 1748.960938 2004.210938 1785.535156 1941.597656 1818.433594 C 1892.605469 1760.460938 1842.453125 1711.84375 1792.242188 1674.765625 C 1829.339844 1656.292969 1865.421875 1636.414062 1900.398438 1615.21875 Z M 1374.773438 1811.445312 C 1443.949219 1799.535156 1513.089844 1782.617188 1581.761719 1760.472656 L 1644.746094 1939.1875 C 1593.902344 1954.300781 1541.894531 1967.183594 1488.746094 1977.566406 C 1438.351562 1987.414062 1387.984375 1994.78125 1337.835938 1999.917969 C 1343.914062 1928.308594 1356.5 1865.066406 1374.769531 1811.445312 Z M 1782.425781 1679.492188 C 1834.238281 1714.976562 1886.074219 1762.988281 1936.667969 1821.070312 C 1848.300781 1867.121094 1754.832031 1905.566406 1656.824219 1935.511719 L 1596.734375 1755.488281 C 1599.285156 1754.636719 1601.832031 1753.863281 1604.382812 1752.996094 C 1666.058594 1732.042969 1725.417969 1707.371094 1782.425781 1679.488281 Z M 981.035156 2005.5625 C 1021.59375 2009.832031 1062.511719 2012.585938 1103.65625 2013.898438 C 1070.335938 2091.265625 1046.089844 2176.855469 1032.144531 2268.960938 C 967.546875 2265.484375 903.476562 2258.703125 840.132812 2248.824219 C 876.511719 2161.347656 924.132812 2079.765625 981.035156 2005.5625 Z M 2227.152344 1635.703125 C 2306.53125 1663.902344 2381.382812 1701.003906 2450.660156 1745.683594 C 2409.601562 1784.894531 2366.65625 1822.328125 2322.007812 1857.894531 C 2263.769531 1799.128906 2200.882812 1747.902344 2134.511719 1705.789062 C 2166.234375 1683.417969 2197.1875 1660.089844 2227.152344 1635.707031 Z M 1114.84375 2014.195312 C 1186.5 2016 1258.929688 2013.308594 1331.773438 2005.757812 C 1326.847656 2082.320312 1328.894531 2167.8125 1338.53125 2260.785156 C 1237.777344 2271.628906 1137.503906 2274.324219 1038.40625 2269.316406 C 1053.617188 2176.953125 1079.636719 2091.335938 1114.84375 2014.191406 Z M 2126.1875 1711.636719 C 2193.921875 1752.695312 2257.992188 1803.289062 2317.277344 1861.664062 C 2244.167969 1919.523438 2166.460938 1972.355469 2084.402344 2019.394531 C 2039.769531 1945.960938 1992.726562 1879.367188 1944.488281 1821.871094 C 2007.738281 1788.804688 2068.339844 1751.910156 2126.183594 1711.636719 Z M 1337.46875 2005.109375 C 1386.117188 1999.902344 1434.957031 1992.664062 1483.871094 1983.109375 C 1539.195312 1972.300781 1593.265625 1958.835938 1646.167969 1943.015625 L 1728.628906 2177.160156 C 1685.457031 2191.21875 1641.507812 2203.855469 1596.742188 2214.984375 C 1511.695312 2236.125 1426.40625 2251.140625 1341.519531 2260.410156 C 1332.511719 2167.058594 1331.351562 2081.429688 1337.464844 2005.109375 Z M 1939.628906 1824.375 C 1988.691406 1881.128906 2036.539062 1947.386719 2081.851562 2020.792969 C 1973.894531 2082.464844 1858.554688 2134.242188 1736.660156 2174.539062 L 1658.152344 1939.371094 C 1756.605469 1909.140625 1850.675781 1870.507812 1939.632812 1824.375 Z M 836.308594 2258.417969 C 900.460938 2267.964844 965.402344 2274.433594 1030.859375 2277.476562 C 1019.851562 2354.019531 1015.949219 2434.988281 1020.058594 2519.441406 C 1020.6875 2532.359375 1021.546875 2545.199219 1022.535156 2558.0625 C 935.765625 2553.8125 850.125 2544.445312 765.988281 2530.28125 C 777.59375 2435.261719 801.644531 2344.089844 836.3125 2258.414062 Z M 2456.71875 1749.535156 C 2534.820312 1800.640625 2605.601562 1861.535156 2667.5 1930.296875 C 2613.691406 1983.28125 2557.105469 2033.46875 2498.078125 2080.769531 C 2447.515625 2000.371094 2389.757812 1926.742188 2326.359375 1862.113281 C 2371.578125 1826.445312 2415.085938 1788.84375 2456.71875 1749.535156 Z M 1037.074219 2277.707031 C 1136.773438 2282.023438 1237.730469 2278.617188 1339.183594 2267.101562 C 1343.90625 2311.265625 1350.308594 2357.074219 1358.523438 2404.40625 C 1366.710938 2451.59375 1376.453125 2498.804688 1387.515625 2545.746094 C 1342.496094 2551.003906 1297.019531 2554.851562 1251.132812 2557.351562 C 1175.441406 2561.480469 1100.433594 2561.679688 1026.238281 2558.171875 C 1025.414062 2546.511719 1024.625 2534.800781 1024.105469 2523.089844 C 1020.28125 2437.339844 1024.910156 2355.195312 1037.074219 2277.703125 Z M 2321.636719 1865.949219 C 2385.851562 1929.84375 2444.3125 2002.882812 2495.28125 2082.980469 C 2407.582031 2153.03125 2314.429688 2216.523438 2216.390625 2272.695312 C 2176.671875 2183.785156 2133.109375 2099.957031 2086.867188 2023.464844 C 2169.464844 1976.367188 2247.886719 1923.746094 2321.636719 1865.945312 Z M 1342.0625 2266.757812 C 1424.988281 2257.21875 1508.183594 2242.296875 1591.359375 2221.621094 C 1638.480469 2209.90625 1684.714844 2196.457031 1730.125 2181.570312 L 1824.175781 2448.550781 C 1685.175781 2494.941406 1539.679688 2527.804688 1389.15625 2545.507812 C 1378.527344 2499.992188 1369.246094 2454.246094 1361.414062 2408.476562 C 1353.042969 2359.53125 1346.628906 2312.257812 1342.078125 2266.757812 Z M 2084.320312 2024.875 C 2131.023438 2100.957031 2174.996094 2184.632812 2214.9375 2273.519531 C 2092.902344 2343.320312 1963.433594 2401.792969 1827.746094 2447.339844 L 1738.164062 2178.945312 C 1860.226562 2138.339844 1975.917969 2086.472656 2084.335938 2024.871094 Z M 2084.320312 2024.875 " fill-opacity="1" fill-rule="nonzero"/></g><g clip-path="url(#cf708f0b1c)"><path fill="#ffffff" d="M 868.484375 851.125 C 861.796875 842.550781 859.519531 831.171875 862.394531 820.695312 L 866.707031 804.996094 C 869.851562 793.539062 864.828125 781.433594 854.5 775.574219 L 840.4375 767.589844 C 830.972656 762.21875 824.519531 752.554688 823.1875 741.75 L 821.203125 725.757812 C 819.742188 713.945312 810.464844 704.652344 798.648438 703.199219 L 782.652344 701.214844 C 771.855469 699.882812 762.199219 693.433594 756.824219 683.96875 L 748.847656 669.921875 C 742.96875 659.582031 730.855469 654.550781 719.417969 657.722656 L 703.839844 662 C 693.386719 664.855469 682 662.621094 673.425781 655.957031 L 660.59375 645.980469 C 651.214844 638.6875 638.117188 638.6875 628.738281 645.980469 L 615.90625 655.957031 C 607.332031 662.632812 595.960938 664.855469 585.492188 662 L 569.925781 657.722656 C 558.453125 654.5625 546.355469 659.582031 540.492188 669.921875 L 532.507812 683.96875 C 527.132812 693.433594 517.476562 699.882812 506.679688 701.214844 L 490.683594 703.199219 C 478.867188 704.664062 469.582031 713.945312 468.128906 725.757812 L 466.144531 741.75 C 464.8125 752.554688 458.359375 762.21875 448.894531 767.589844 L 434.832031 775.574219 C 424.503906 781.445312 419.480469 793.539062 422.625 804.996094 L 426.929688 820.695312 C 429.8125 831.171875 427.535156 842.542969 420.839844 851.125 L 410.941406 863.828125 C 403.625 873.203125 403.617188 886.3125 410.917969 895.710938 L 420.875 908.515625 C 427.542969 917.089844 429.804688 928.464844 426.917969 938.9375 L 422.632812 954.511719 C 419.480469 965.96875 424.503906 978.082031 434.84375 983.945312 L 448.886719 991.921875 C 458.351562 997.289062 464.804688 1006.953125 466.136719 1017.757812 L 468.121094 1033.753906 C 469.582031 1045.5625 478.855469 1054.855469 490.675781 1056.308594 L 506.671875 1058.292969 C 517.46875 1059.625 527.121094 1066.078125 532.5 1075.542969 L 540.492188 1089.621094 C 546.355469 1099.945312 558.425781 1104.972656 569.898438 1101.832031 L 585.441406 1097.589844 C 588.472656 1096.738281 591.582031 1096.324219 594.671875 1096.324219 C 602.292969 1096.324219 609.84375 1098.835938 615.964844 1103.605469 L 628.738281 1113.53125 C 638.117188 1120.820312 651.214844 1120.820312 660.59375 1113.53125 L 673.375 1103.605469 C 681.984375 1096.914062 693.394531 1094.636719 703.917969 1097.597656 L 719.441406 1101.832031 C 730.878906 1104.972656 742.976562 1099.941406 748.847656 1089.621094 L 756.839844 1075.542969 C 762.21875 1066.078125 771.871094 1059.625 782.671875 1058.292969 L 798.664062 1056.308594 C 810.484375 1054.847656 819.765625 1045.5625 821.222656 1033.753906 L 823.203125 1017.757812 C 824.539062 1006.953125 830.988281 997.289062 840.453125 991.921875 L 854.5 983.945312 C 864.835938 978.074219 869.851562 965.96875 866.707031 954.511719 L 862.421875 938.933594 C 859.539062 928.464844 861.796875 917.097656 868.464844 908.515625 L 878.421875 895.710938 C 885.722656 886.3125 885.714844 873.203125 878.398438 863.828125 L 868.492188 851.125 Z M 644.652344 1048.578125 C 551.574219 1048.578125 475.859375 972.863281 475.859375 879.785156 C 475.859375 786.707031 551.574219 710.992188 644.652344 710.992188 C 737.730469 710.992188 813.445312 786.707031 813.445312 879.785156 C 813.445312 972.863281 737.730469 1048.578125 644.652344 1048.578125 Z M 644.652344 1048.578125 " fill-opacity="1" fill-rule="nonzero"/></g><path fill="#ffffff" d="M 728.792969 817.25 L 629.179688 916.847656 C 627.492188 918.535156 624.746094 918.535156 623.058594 916.847656 L 560.511719 854.308594 C 558.53125 852.328125 555.878906 851.234375 553.074219 851.234375 C 550.269531 851.234375 547.617188 852.328125 545.628906 854.308594 C 543.636719 856.292969 542.542969 858.941406 542.542969 861.75 C 542.542969 864.554688 543.636719 867.210938 545.628906 869.195312 L 618.675781 942.242188 C 622.648438 946.21875 629.578125 946.21875 633.5625 942.242188 L 743.679688 832.132812 C 745.671875 830.152344 746.761719 827.5 746.761719 824.695312 C 746.761719 821.890625 745.671875 819.230469 743.679688 817.25 C 739.703125 813.273438 732.777344 813.273438 728.792969 817.25 Z M 728.792969 817.25 " fill-opacity="1" fill-rule="nonzero"/><path fill="#ffffff" d="M 644.652344 719.652344 C 556.355469 719.652344 484.519531 791.488281 484.519531 879.785156 C 484.519531 968.082031 556.355469 1039.917969 644.652344 1039.917969 C 732.949219 1039.917969 804.785156 968.082031 804.785156 879.785156 C 804.785156 791.488281 732.949219 719.652344 644.652344 719.652344 Z M 749.800781 838.265625 L 639.683594 948.375 C 636.054688 952.003906 631.238281 953.992188 626.121094 953.992188 C 621.003906 953.992188 616.183594 952.003906 612.554688 948.375 L 539.503906 875.324219 C 535.886719 871.707031 533.886719 866.882812 533.886719 861.757812 C 533.886719 856.628906 535.886719 851.816406 539.503906 848.195312 C 546.746094 840.957031 559.394531 840.957031 566.632812 848.195312 L 626.113281 907.667969 L 722.664062 811.136719 C 729.917969 803.878906 742.542969 803.878906 749.792969 811.136719 C 753.410156 814.753906 755.410156 819.578125 755.410156 824.703125 C 755.410156 829.832031 753.410156 834.644531 749.792969 838.265625 Z M 749.800781 838.265625 " fill-opacity="1" fill-rule="nonzero"/><g fill="#4c98a8" fill-opacity="1"><g transform="translate(1145.51305, 834.118086)"><g><path d="M 129.96875 0 L 94.046875 0 L 46.1875 -72.21875 L 46.1875 0 L 10.265625 0 L 10.265625 -129.234375 L 46.1875 -129.234375 L 94.046875 -56.09375 L 94.046875 -129.234375 L 129.96875 -129.234375 Z M 129.96875 0 "/></g></g></g><g fill="#4c98a8" fill-opacity="1"><g transform="translate(1285.741574, 834.118086)"><g><path d="M 46.1875 -100.453125 L 46.1875 -79.375 L 87.4375 -79.375 L 87.4375 -52.0625 L 46.1875 -52.0625 L 46.1875 -28.78125 L 92.9375 -28.78125 L 92.9375 0 L 10.265625 0 L 10.265625 -129.234375 L 92.9375 -129.234375 L 92.9375 -100.453125 Z M 46.1875 -100.453125 "/></g></g></g><g fill="#4c98a8" fill-opacity="1"><g transform="translate(1386.192874, 834.118086)"><g><path d="M 192.296875 -129.234375 L 160.578125 0 L 116.40625 0 L 98.625 -79.1875 L 80.46875 0 L 36.296875 0 L 4.953125 -129.234375 L 43.8125 -129.234375 L 58.84375 -40.875 L 79.1875 -129.234375 L 118.609375 -129.234375 L 138.40625 -41.609375 L 153.4375 -129.234375 Z M 192.296875 -129.234375 "/></g></g></g><g fill="#4c98a8" fill-opacity="1"><g transform="translate(1583.429321, 834.118086)"><g><path d="M 59.03125 1.28125 C 44 1.28125 31.65625 -2.289062 22 -9.4375 C 12.34375 -16.59375 7.148438 -26.828125 6.421875 -40.140625 L 44.734375 -40.140625 C 45.097656 -35.617188 46.441406 -32.316406 48.765625 -30.234375 C 51.085938 -28.160156 54.082031 -27.125 57.75 -27.125 C 61.039062 -27.125 63.753906 -27.945312 65.890625 -29.59375 C 68.035156 -31.25 69.109375 -33.546875 69.109375 -36.484375 C 69.109375 -40.265625 67.335938 -43.191406 63.796875 -45.265625 C 60.253906 -47.347656 54.507812 -49.675781 46.5625 -52.25 C 38.125 -55.050781 31.304688 -57.765625 26.109375 -60.390625 C 20.921875 -63.023438 16.398438 -66.878906 12.546875 -71.953125 C 8.703125 -77.023438 6.78125 -83.65625 6.78125 -91.84375 C 6.78125 -100.15625 8.859375 -107.273438 13.015625 -113.203125 C 17.171875 -119.128906 22.914062 -123.617188 30.25 -126.671875 C 37.582031 -129.722656 45.890625 -131.25 55.171875 -131.25 C 70.203125 -131.25 82.207031 -127.734375 91.1875 -120.703125 C 100.175781 -113.679688 104.976562 -103.816406 105.59375 -91.109375 L 66.546875 -91.109375 C 66.421875 -95.015625 65.226562 -97.945312 62.96875 -99.90625 C 60.707031 -101.863281 57.804688 -102.84375 54.265625 -102.84375 C 51.578125 -102.84375 49.375 -102.046875 47.65625 -100.453125 C 45.945312 -98.867188 45.09375 -96.609375 45.09375 -93.671875 C 45.09375 -91.222656 46.039062 -89.113281 47.9375 -87.34375 C 49.832031 -85.570312 52.179688 -84.046875 54.984375 -82.765625 C 57.796875 -81.484375 61.953125 -79.863281 67.453125 -77.90625 C 75.640625 -75.09375 82.390625 -72.3125 87.703125 -69.5625 C 93.023438 -66.8125 97.609375 -62.960938 101.453125 -58.015625 C 105.304688 -53.066406 107.234375 -46.804688 107.234375 -39.234375 C 107.234375 -31.535156 105.304688 -24.628906 101.453125 -18.515625 C 97.609375 -12.398438 92.050781 -7.570312 84.78125 -4.03125 C 77.507812 -0.488281 68.925781 1.28125 59.03125 1.28125 Z M 59.03125 1.28125 "/></g></g></g><g fill="#ffffff" fill-opacity="1"><g transform="translate(1060.650074, 1090.474069)"><g><path d="M 42.15625 -128.6875 L 42.15625 -51.6875 C 42.15625 -43.988281 44.050781 -38.0625 47.84375 -33.90625 C 51.632812 -29.757812 57.195312 -27.6875 64.53125 -27.6875 C 71.863281 -27.6875 77.484375 -29.757812 81.390625 -33.90625 C 85.296875 -38.0625 87.25 -43.988281 87.25 -51.6875 L 87.25 -128.6875 L 118.609375 -128.6875 L 118.609375 -51.875 C 118.609375 -40.382812 116.160156 -30.664062 111.265625 -22.71875 C 106.378906 -14.78125 99.8125 -8.796875 91.5625 -4.765625 C 83.3125 -0.734375 74.113281 1.28125 63.96875 1.28125 C 53.832031 1.28125 44.757812 -0.703125 36.75 -4.671875 C 28.75 -8.640625 22.425781 -14.625 17.78125 -22.625 C 13.132812 -30.632812 10.8125 -40.382812 10.8125 -51.875 L 10.8125 -128.6875 Z M 42.15625 -128.6875 "/></g></g></g><g fill="#ffffff" fill-opacity="1"><g transform="translate(1189.880289, 1090.474069)"><g><path d="M 109.4375 -87.25 C 109.4375 -79.800781 107.722656 -72.988281 104.296875 -66.8125 C 100.878906 -60.644531 95.625 -55.664062 88.53125 -51.875 C 81.445312 -48.082031 72.648438 -46.1875 62.140625 -46.1875 L 42.71875 -46.1875 L 42.71875 0 L 11.359375 0 L 11.359375 -128.6875 L 62.140625 -128.6875 C 72.410156 -128.6875 81.085938 -126.910156 88.171875 -123.359375 C 95.265625 -119.816406 100.582031 -114.929688 104.125 -108.703125 C 107.664062 -102.472656 109.4375 -95.320312 109.4375 -87.25 Z M 59.765625 -71.125 C 65.742188 -71.125 70.203125 -72.53125 73.140625 -75.34375 C 76.078125 -78.15625 77.546875 -82.125 77.546875 -87.25 C 77.546875 -92.382812 76.078125 -96.359375 73.140625 -99.171875 C 70.203125 -101.984375 65.742188 -103.390625 59.765625 -103.390625 L 42.71875 -103.390625 L 42.71875 -71.125 Z M 59.765625 -71.125 "/></g></g></g><g fill="#ffffff" fill-opacity="1"><g transform="translate(1304.262767, 1090.474069)"><g><path d="M 59.578125 -128.6875 C 73.140625 -128.6875 84.992188 -125.992188 95.140625 -120.609375 C 105.285156 -115.234375 113.132812 -107.6875 118.6875 -97.96875 C 124.25 -88.257812 127.03125 -77.050781 127.03125 -64.34375 C 127.03125 -51.757812 124.25 -40.578125 118.6875 -30.796875 C 113.132812 -21.015625 105.253906 -13.4375 95.046875 -8.0625 C 84.835938 -2.6875 73.015625 0 59.578125 0 L 11.359375 0 L 11.359375 -128.6875 Z M 57.5625 -27.125 C 69.414062 -27.125 78.640625 -30.363281 85.234375 -36.84375 C 91.835938 -43.320312 95.140625 -52.488281 95.140625 -64.34375 C 95.140625 -76.195312 91.835938 -85.421875 85.234375 -92.015625 C 78.640625 -98.617188 69.414062 -101.921875 57.5625 -101.921875 L 42.71875 -101.921875 L 42.71875 -27.125 Z M 57.5625 -27.125 "/></g></g></g><g fill="#ffffff" fill-opacity="1"><g transform="translate(1437.525694, 1090.474069)"><g><path d="M 91.46875 -22.734375 L 43.4375 -22.734375 L 35.75 0 L 2.9375 0 L 49.5 -128.6875 L 85.796875 -128.6875 L 132.359375 0 L 99.171875 0 Z M 83.40625 -46.921875 L 67.453125 -94.046875 L 51.6875 -46.921875 Z M 83.40625 -46.921875 "/></g></g></g><g fill="#ffffff" fill-opacity="1"><g transform="translate(1572.621699, 1090.474069)"><g><path d="M 103.9375 -128.6875 L 103.9375 -103.578125 L 69.84375 -103.578125 L 69.84375 0 L 38.5 0 L 38.5 -103.578125 L 4.40625 -103.578125 L 4.40625 -128.6875 Z M 103.9375 -128.6875 "/></g></g></g><g fill="#ffffff" fill-opacity="1"><g transform="translate(1680.955093, 1090.474069)"><g><path d="M 42.71875 -103.578125 L 42.71875 -77.546875 L 84.6875 -77.546875 L 84.6875 -53.34375 L 42.71875 -53.34375 L 42.71875 -25.109375 L 90.1875 -25.109375 L 90.1875 0 L 11.359375 0 L 11.359375 -128.6875 L 90.1875 -128.6875 L 90.1875 -103.578125 Z M 42.71875 -103.578125 "/></g></g></g><g fill="#ffffff" fill-opacity="1"><g transform="translate(408.772023, 1281.03903)"><g><path d="M 34.0625 -28.703125 C 36.082031 -28.378906 37.929688 -27.550781 39.609375 -26.21875 C 41.296875 -24.882812 42.628906 -23.234375 43.609375 -21.265625 C 44.597656 -19.296875 45.09375 -17.191406 45.09375 -14.953125 C 45.09375 -12.128906 44.375 -9.582031 42.9375 -7.3125 C 41.5 -5.050781 39.40625 -3.265625 36.65625 -1.953125 C 33.914062 -0.648438 30.675781 0 26.9375 0 L 6.15625 0 L 6.15625 -55.734375 L 26.140625 -55.734375 C 29.929688 -55.734375 33.15625 -55.101562 35.8125 -53.84375 C 38.476562 -52.59375 40.476562 -50.898438 41.8125 -48.765625 C 43.144531 -46.640625 43.8125 -44.242188 43.8125 -41.578125 C 43.8125 -38.273438 42.914062 -35.539062 41.125 -33.375 C 39.34375 -31.21875 36.988281 -29.660156 34.0625 -28.703125 Z M 13.4375 -31.65625 L 25.671875 -31.65625 C 29.078125 -31.65625 31.710938 -32.453125 33.578125 -34.046875 C 35.441406 -35.648438 36.375 -37.867188 36.375 -40.703125 C 36.375 -43.523438 35.441406 -45.734375 33.578125 -47.328125 C 31.710938 -48.929688 29.019531 -49.734375 25.5 -49.734375 L 13.4375 -49.734375 Z M 26.296875 -6 C 29.921875 -6 32.742188 -6.847656 34.765625 -8.546875 C 36.796875 -10.253906 37.8125 -12.628906 37.8125 -15.671875 C 37.8125 -18.765625 36.742188 -21.203125 34.609375 -22.984375 C 32.484375 -24.773438 29.632812 -25.671875 26.0625 -25.671875 L 13.4375 -25.671875 L 13.4375 -6 Z M 26.296875 -6 "/></g></g></g><g fill="#ffffff" fill-opacity="1"><g transform="translate(457.785481, 1281.03903)"><g><path d="M 46.140625 -23.59375 C 46.140625 -22.195312 46.054688 -20.726562 45.890625 -19.1875 L 10.875 -19.1875 C 11.132812 -14.875 12.609375 -11.503906 15.296875 -9.078125 C 17.992188 -6.648438 21.265625 -5.4375 25.109375 -5.4375 C 28.253906 -5.4375 30.878906 -6.164062 32.984375 -7.625 C 35.085938 -9.09375 36.566406 -11.054688 37.421875 -13.515625 L 45.25 -13.515625 C 44.082031 -9.304688 41.738281 -5.878906 38.21875 -3.234375 C 34.695312 -0.597656 30.328125 0.71875 25.109375 0.71875 C 20.953125 0.71875 17.234375 -0.210938 13.953125 -2.078125 C 10.671875 -3.941406 8.097656 -6.59375 6.234375 -10.03125 C 4.367188 -13.46875 3.4375 -17.453125 3.4375 -21.984375 C 3.4375 -26.515625 4.34375 -30.484375 6.15625 -33.890625 C 7.96875 -37.304688 10.507812 -39.929688 13.78125 -41.765625 C 17.0625 -43.609375 20.835938 -44.53125 25.109375 -44.53125 C 29.265625 -44.53125 32.941406 -43.625 36.140625 -41.8125 C 39.335938 -40 41.800781 -37.503906 43.53125 -34.328125 C 45.269531 -31.160156 46.140625 -27.582031 46.140625 -23.59375 Z M 38.625 -25.109375 C 38.625 -27.878906 38.007812 -30.265625 36.78125 -32.265625 C 35.550781 -34.265625 33.882812 -35.78125 31.78125 -36.8125 C 29.675781 -37.851562 27.34375 -38.375 24.78125 -38.375 C 21.101562 -38.375 17.972656 -37.203125 15.390625 -34.859375 C 12.804688 -32.515625 11.328125 -29.265625 10.953125 -25.109375 Z M 38.625 -25.109375 "/></g></g></g><g fill="#ffffff" fill-opacity="1"><g transform="translate(507.358627, 1281.03903)"><g><path d="M 13.4375 -36.703125 C 14.707031 -39.203125 16.53125 -41.144531 18.90625 -42.53125 C 21.28125 -43.914062 24.171875 -44.609375 27.578125 -44.609375 L 27.578125 -37.09375 L 25.671875 -37.09375 C 17.515625 -37.09375 13.4375 -32.671875 13.4375 -23.828125 L 13.4375 0 L 6.15625 0 L 6.15625 -43.8125 L 13.4375 -43.8125 Z M 13.4375 -36.703125 "/></g></g></g><g fill="#ffffff" fill-opacity="1"><g transform="translate(537.182476, 1281.03903)"><g><path d="M 9.921875 -50.9375 C 8.523438 -50.9375 7.347656 -51.414062 6.390625 -52.375 C 5.429688 -53.332031 4.953125 -54.503906 4.953125 -55.890625 C 4.953125 -57.273438 5.429688 -58.445312 6.390625 -59.40625 C 7.347656 -60.363281 8.523438 -60.84375 9.921875 -60.84375 C 11.242188 -60.84375 12.375 -60.363281 13.3125 -59.40625 C 14.25 -58.445312 14.71875 -57.273438 14.71875 -55.890625 C 14.71875 -54.503906 14.25 -53.332031 13.3125 -52.375 C 12.375 -51.414062 11.242188 -50.9375 9.921875 -50.9375 Z M 13.4375 -43.8125 L 13.4375 0 L 6.15625 0 L 6.15625 -43.8125 Z M 13.4375 -43.8125 "/></g></g></g><g fill="#ffffff" fill-opacity="1"><g transform="translate(556.851826, 1281.03903)"><g><path d="M 15.03125 -37.8125 L 15.03125 -12 C 15.03125 -9.863281 15.484375 -8.351562 16.390625 -7.46875 C 17.296875 -6.59375 18.867188 -6.15625 21.109375 -6.15625 L 26.46875 -6.15625 L 26.46875 0 L 19.90625 0 C 15.851562 0 12.8125 -0.929688 10.78125 -2.796875 C 8.757812 -4.660156 7.75 -7.726562 7.75 -12 L 7.75 -37.8125 L 2.078125 -37.8125 L 2.078125 -43.8125 L 7.75 -43.8125 L 7.75 -54.84375 L 15.03125 -54.84375 L 15.03125 -43.8125 L 26.46875 -43.8125 L 26.46875 -37.8125 Z M 15.03125 -37.8125 "/></g></g></g><g fill="#ffffff" fill-opacity="1"><g transform="translate(585.956058, 1281.03903)"><g><path d="M 3.4375 -22.0625 C 3.4375 -26.539062 4.34375 -30.472656 6.15625 -33.859375 C 7.96875 -37.242188 10.457031 -39.867188 13.625 -41.734375 C 16.800781 -43.597656 20.332031 -44.53125 24.21875 -44.53125 C 28.0625 -44.53125 31.394531 -43.703125 34.21875 -42.046875 C 37.039062 -40.398438 39.144531 -38.320312 40.53125 -35.8125 L 40.53125 -43.8125 L 47.890625 -43.8125 L 47.890625 0 L 40.53125 0 L 40.53125 -8.15625 C 39.09375 -5.59375 36.945312 -3.472656 34.09375 -1.796875 C 31.25 -0.117188 27.929688 0.71875 24.140625 0.71875 C 20.253906 0.71875 16.738281 -0.238281 13.59375 -2.15625 C 10.445312 -4.070312 7.96875 -6.765625 6.15625 -10.234375 C 4.34375 -13.703125 3.4375 -17.644531 3.4375 -22.0625 Z M 40.53125 -21.984375 C 40.53125 -25.285156 39.863281 -28.160156 38.53125 -30.609375 C 37.195312 -33.066406 35.398438 -34.945312 33.140625 -36.25 C 30.878906 -37.5625 28.390625 -38.21875 25.671875 -38.21875 C 22.953125 -38.21875 20.472656 -37.578125 18.234375 -36.296875 C 15.992188 -35.015625 14.207031 -33.148438 12.875 -30.703125 C 11.539062 -28.253906 10.875 -25.375 10.875 -22.0625 C 10.875 -18.707031 11.539062 -15.789062 12.875 -13.3125 C 14.207031 -10.832031 15.992188 -8.9375 18.234375 -7.625 C 20.472656 -6.320312 22.953125 -5.671875 25.671875 -5.671875 C 28.390625 -5.671875 30.878906 -6.320312 33.140625 -7.625 C 35.398438 -8.9375 37.195312 -10.832031 38.53125 -13.3125 C 39.863281 -15.789062 40.53125 -18.679688 40.53125 -21.984375 Z M 40.53125 -21.984375 "/></g></g></g><g fill="#ffffff" fill-opacity="1"><g transform="translate(640.006798, 1281.03903)"><g/></g></g><g fill="#ffffff" fill-opacity="1"><g transform="translate(661.355234, 1281.03903)"><g><path d="M 15.03125 -37.8125 L 15.03125 -12 C 15.03125 -9.863281 15.484375 -8.351562 16.390625 -7.46875 C 17.296875 -6.59375 18.867188 -6.15625 21.109375 -6.15625 L 26.46875 -6.15625 L 26.46875 0 L 19.90625 0 C 15.851562 0 12.8125 -0.929688 10.78125 -2.796875 C 8.757812 -4.660156 7.75 -7.726562 7.75 -12 L 7.75 -37.8125 L 2.078125 -37.8125 L 2.078125 -43.8125 L 7.75 -43.8125 L 7.75 -54.84375 L 15.03125 -54.84375 L 15.03125 -43.8125 L 26.46875 -43.8125 L 26.46875 -37.8125 Z M 15.03125 -37.8125 "/></g></g></g><g fill="#ffffff" fill-opacity="1"><g transform="translate(690.459455, 1281.03903)"><g><path d="M 46.140625 -23.59375 C 46.140625 -22.195312 46.054688 -20.726562 45.890625 -19.1875 L 10.875 -19.1875 C 11.132812 -14.875 12.609375 -11.503906 15.296875 -9.078125 C 17.992188 -6.648438 21.265625 -5.4375 25.109375 -5.4375 C 28.253906 -5.4375 30.878906 -6.164062 32.984375 -7.625 C 35.085938 -9.09375 36.566406 -11.054688 37.421875 -13.515625 L 45.25 -13.515625 C 44.082031 -9.304688 41.738281 -5.878906 38.21875 -3.234375 C 34.695312 -0.597656 30.328125 0.71875 25.109375 0.71875 C 20.953125 0.71875 17.234375 -0.210938 13.953125 -2.078125 C 10.671875 -3.941406 8.097656 -6.59375 6.234375 -10.03125 C 4.367188 -13.46875 3.4375 -17.453125 3.4375 -21.984375 C 3.4375 -26.515625 4.34375 -30.484375 6.15625 -33.890625 C 7.96875 -37.304688 10.507812 -39.929688 13.78125 -41.765625 C 17.0625 -43.609375 20.835938 -44.53125 25.109375 -44.53125 C 29.265625 -44.53125 32.941406 -43.625 36.140625 -41.8125 C 39.335938 -40 41.800781 -37.503906 43.53125 -34.328125 C 45.269531 -31.160156 46.140625 -27.582031 46.140625 -23.59375 Z M 38.625 -25.109375 C 38.625 -27.878906 38.007812 -30.265625 36.78125 -32.265625 C 35.550781 -34.265625 33.882812 -35.78125 31.78125 -36.8125 C 29.675781 -37.851562 27.34375 -38.375 24.78125 -38.375 C 21.101562 -38.375 17.972656 -37.203125 15.390625 -34.859375 C 12.804688 -32.515625 11.328125 -29.265625 10.953125 -25.109375 Z M 38.625 -25.109375 "/></g></g></g><g fill="#ffffff" fill-opacity="1"><g transform="translate(740.03259, 1281.03903)"><g><path d="M 13.4375 -36.703125 C 14.707031 -39.203125 16.53125 -41.144531 18.90625 -42.53125 C 21.28125 -43.914062 24.171875 -44.609375 27.578125 -44.609375 L 27.578125 -37.09375 L 25.671875 -37.09375 C 17.515625 -37.09375 13.4375 -32.671875 13.4375 -23.828125 L 13.4375 0 L 6.15625 0 L 6.15625 -43.8125 L 13.4375 -43.8125 Z M 13.4375 -36.703125 "/></g></g></g><g fill="#ffffff" fill-opacity="1"><g transform="translate(769.856461, 1281.03903)"><g><path d="M 36.546875 -32.375 L 36.546875 -26.21875 L 4.640625 -26.21875 L 4.640625 -32.375 Z M 36.546875 -32.375 "/></g></g></g><g fill="#ffffff" fill-opacity="1"><g transform="translate(813.912563, 1281.03903)"><g><path d="M 45.015625 -43.8125 L 45.015625 0 L 37.734375 0 L 37.734375 -6.46875 C 36.347656 -4.238281 34.414062 -2.492188 31.9375 -1.234375 C 29.457031 0.015625 26.726562 0.640625 23.75 0.640625 C 20.332031 0.640625 17.265625 -0.0625 14.546875 -1.46875 C 11.828125 -2.882812 9.679688 -5.003906 8.109375 -7.828125 C 6.535156 -10.660156 5.75 -14.101562 5.75 -18.15625 L 5.75 -43.8125 L 12.953125 -43.8125 L 12.953125 -19.109375 C 12.953125 -14.785156 14.046875 -11.460938 16.234375 -9.140625 C 18.421875 -6.828125 21.40625 -5.671875 25.1875 -5.671875 C 29.070312 -5.671875 32.132812 -6.867188 34.375 -9.265625 C 36.613281 -11.671875 37.734375 -15.164062 37.734375 -19.75 L 37.734375 -43.8125 Z M 45.015625 -43.8125 "/></g></g></g><g fill="#ffffff" fill-opacity="1"><g transform="translate(865.084871, 1281.03903)"><g><path d="M 13.4375 -35.734375 C 14.875 -38.242188 17.015625 -40.335938 19.859375 -42.015625 C 22.710938 -43.691406 26.035156 -44.53125 29.828125 -44.53125 C 33.710938 -44.53125 37.238281 -43.597656 40.40625 -41.734375 C 43.582031 -39.867188 46.078125 -37.242188 47.890625 -33.859375 C 49.703125 -30.472656 50.609375 -26.539062 50.609375 -22.0625 C 50.609375 -17.644531 49.703125 -13.703125 47.890625 -10.234375 C 46.078125 -6.765625 43.582031 -4.070312 40.40625 -2.15625 C 37.238281 -0.238281 33.710938 0.71875 29.828125 0.71875 C 26.085938 0.71875 22.789062 -0.117188 19.9375 -1.796875 C 17.09375 -3.472656 14.925781 -5.566406 13.4375 -8.078125 L 13.4375 20.78125 L 6.15625 20.78125 L 6.15625 -43.8125 L 13.4375 -43.8125 Z M 43.171875 -22.0625 C 43.171875 -25.375 42.503906 -28.253906 41.171875 -30.703125 C 39.835938 -33.148438 38.035156 -35.015625 35.765625 -36.296875 C 33.503906 -37.578125 31.015625 -38.21875 28.296875 -38.21875 C 25.640625 -38.21875 23.175781 -37.5625 20.90625 -36.25 C 18.644531 -34.945312 16.832031 -33.054688 15.46875 -30.578125 C 14.113281 -28.097656 13.4375 -25.234375 13.4375 -21.984375 C 13.4375 -18.679688 14.113281 -15.789062 15.46875 -13.3125 C 16.832031 -10.832031 18.644531 -8.9375 20.90625 -7.625 C 23.175781 -6.320312 25.640625 -5.671875 28.296875 -5.671875 C 31.015625 -5.671875 33.503906 -6.320312 35.765625 -7.625 C 38.035156 -8.9375 39.835938 -10.832031 41.171875 -13.3125 C 42.503906 -15.789062 43.171875 -18.707031 43.171875 -22.0625 Z M 43.171875 -22.0625 "/></g></g></g><g fill="#ffffff" fill-opacity="1"><g transform="translate(919.135599, 1281.03903)"><g><path d="M 3.4375 -22.0625 C 3.4375 -26.539062 4.34375 -30.472656 6.15625 -33.859375 C 7.96875 -37.242188 10.457031 -39.867188 13.625 -41.734375 C 16.800781 -43.597656 20.363281 -44.53125 24.3125 -44.53125 C 27.71875 -44.53125 30.882812 -43.742188 33.8125 -42.171875 C 36.75 -40.597656 38.988281 -38.535156 40.53125 -35.984375 L 40.53125 -59.171875 L 47.890625 -59.171875 L 47.890625 0 L 40.53125 0 L 40.53125 -8.234375 C 39.09375 -5.617188 36.960938 -3.472656 34.140625 -1.796875 C 31.316406 -0.117188 28.007812 0.71875 24.21875 0.71875 C 20.332031 0.71875 16.800781 -0.238281 13.625 -2.15625 C 10.457031 -4.070312 7.96875 -6.765625 6.15625 -10.234375 C 4.34375 -13.703125 3.4375 -17.644531 3.4375 -22.0625 Z M 40.53125 -21.984375 C 40.53125 -25.285156 39.863281 -28.160156 38.53125 -30.609375 C 37.195312 -33.066406 35.398438 -34.945312 33.140625 -36.25 C 30.878906 -37.5625 28.390625 -38.21875 25.671875 -38.21875 C 22.953125 -38.21875 20.472656 -37.578125 18.234375 -36.296875 C 15.992188 -35.015625 14.207031 -33.148438 12.875 -30.703125 C 11.539062 -28.253906 10.875 -25.375 10.875 -22.0625 C 10.875 -18.707031 11.539062 -15.789062 12.875 -13.3125 C 14.207031 -10.832031 15.992188 -8.9375 18.234375 -7.625 C 20.472656 -6.320312 22.953125 -5.671875 25.671875 -5.671875 C 28.390625 -5.671875 30.878906 -6.320312 33.140625 -7.625 C 35.398438 -8.9375 37.195312 -10.832031 38.53125 -13.3125 C 39.863281 -15.789062 40.53125 -18.679688 40.53125 -21.984375 Z M 40.53125 -21.984375 "/></g></g></g><g fill="#ffffff" fill-opacity="1"><g transform="translate(973.186327, 1281.03903)"><g><path d="M 3.4375 -22.0625 C 3.4375 -26.539062 4.34375 -30.472656 6.15625 -33.859375 C 7.96875 -37.242188 10.457031 -39.867188 13.625 -41.734375 C 16.800781 -43.597656 20.332031 -44.53125 24.21875 -44.53125 C 28.0625 -44.53125 31.394531 -43.703125 34.21875 -42.046875 C 37.039062 -40.398438 39.144531 -38.320312 40.53125 -35.8125 L 40.53125 -43.8125 L 47.890625 -43.8125 L 47.890625 0 L 40.53125 0 L 40.53125 -8.15625 C 39.09375 -5.59375 36.945312 -3.472656 34.09375 -1.796875 C 31.25 -0.117188 27.929688 0.71875 24.140625 0.71875 C 20.253906 0.71875 16.738281 -0.238281 13.59375 -2.15625 C 10.445312 -4.070312 7.96875 -6.765625 6.15625 -10.234375 C 4.34375 -13.703125 3.4375 -17.644531 3.4375 -22.0625 Z M 40.53125 -21.984375 C 40.53125 -25.285156 39.863281 -28.160156 38.53125 -30.609375 C 37.195312 -33.066406 35.398438 -34.945312 33.140625 -36.25 C 30.878906 -37.5625 28.390625 -38.21875 25.671875 -38.21875 C 22.953125 -38.21875 20.472656 -37.578125 18.234375 -36.296875 C 15.992188 -35.015625 14.207031 -33.148438 12.875 -30.703125 C 11.539062 -28.253906 10.875 -25.375 10.875 -22.0625 C 10.875 -18.707031 11.539062 -15.789062 12.875 -13.3125 C 14.207031 -10.832031 15.992188 -8.9375 18.234375 -7.625 C 20.472656 -6.320312 22.953125 -5.671875 25.671875 -5.671875 C 28.390625 -5.671875 30.878906 -6.320312 33.140625 -7.625 C 35.398438 -8.9375 37.195312 -10.832031 38.53125 -13.3125 C 39.863281 -15.789062 40.53125 -18.679688 40.53125 -21.984375 Z M 40.53125 -21.984375 "/></g></g></g><g fill="#ffffff" fill-opacity="1"><g transform="translate(1027.237055, 1281.03903)"><g><path d="M 15.03125 -37.8125 L 15.03125 -12 C 15.03125 -9.863281 15.484375 -8.351562 16.390625 -7.46875 C 17.296875 -6.59375 18.867188 -6.15625 21.109375 -6.15625 L 26.46875 -6.15625 L 26.46875 0 L 19.90625 0 C 15.851562 0 12.8125 -0.929688 10.78125 -2.796875 C 8.757812 -4.660156 7.75 -7.726562 7.75 -12 L 7.75 -37.8125 L 2.078125 -37.8125 L 2.078125 -43.8125 L 7.75 -43.8125 L 7.75 -54.84375 L 15.03125 -54.84375 L 15.03125 -43.8125 L 26.46875 -43.8125 L 26.46875 -37.8125 Z M 15.03125 -37.8125 "/></g></g></g><g fill="#ffffff" fill-opacity="1"><g transform="translate(1056.341275, 1281.03903)"><g><path d="M 46.140625 -23.59375 C 46.140625 -22.195312 46.054688 -20.726562 45.890625 -19.1875 L 10.875 -19.1875 C 11.132812 -14.875 12.609375 -11.503906 15.296875 -9.078125 C 17.992188 -6.648438 21.265625 -5.4375 25.109375 -5.4375 C 28.253906 -5.4375 30.878906 -6.164062 32.984375 -7.625 C 35.085938 -9.09375 36.566406 -11.054688 37.421875 -13.515625 L 45.25 -13.515625 C 44.082031 -9.304688 41.738281 -5.878906 38.21875 -3.234375 C 34.695312 -0.597656 30.328125 0.71875 25.109375 0.71875 C 20.953125 0.71875 17.234375 -0.210938 13.953125 -2.078125 C 10.671875 -3.941406 8.097656 -6.59375 6.234375 -10.03125 C 4.367188 -13.46875 3.4375 -17.453125 3.4375 -21.984375 C 3.4375 -26.515625 4.34375 -30.484375 6.15625 -33.890625 C 7.96875 -37.304688 10.507812 -39.929688 13.78125 -41.765625 C 17.0625 -43.609375 20.835938 -44.53125 25.109375 -44.53125 C 29.265625 -44.53125 32.941406 -43.625 36.140625 -41.8125 C 39.335938 -40 41.800781 -37.503906 43.53125 -34.328125 C 45.269531 -31.160156 46.140625 -27.582031 46.140625 -23.59375 Z M 38.625 -25.109375 C 38.625 -27.878906 38.007812 -30.265625 36.78125 -32.265625 C 35.550781 -34.265625 33.882812 -35.78125 31.78125 -36.8125 C 29.675781 -37.851562 27.34375 -38.375 24.78125 -38.375 C 21.101562 -38.375 17.972656 -37.203125 15.390625 -34.859375 C 12.804688 -32.515625 11.328125 -29.265625 10.953125 -25.109375 Z M 38.625 -25.109375 "/></g></g></g><g fill="#ffffff" fill-opacity="1"><g transform="translate(1105.914456, 1281.03903)"><g/></g></g><g fill="#ffffff" fill-opacity="1"><g transform="translate(1127.262846, 1281.03903)"><g><path d="M 15.03125 -37.8125 L 15.03125 -12 C 15.03125 -9.863281 15.484375 -8.351562 16.390625 -7.46875 C 17.296875 -6.59375 18.867188 -6.15625 21.109375 -6.15625 L 26.46875 -6.15625 L 26.46875 0 L 19.90625 0 C 15.851562 0 12.8125 -0.929688 10.78125 -2.796875 C 8.757812 -4.660156 7.75 -7.726562 7.75 -12 L 7.75 -37.8125 L 2.078125 -37.8125 L 2.078125 -43.8125 L 7.75 -43.8125 L 7.75 -54.84375 L 15.03125 -54.84375 L 15.03125 -43.8125 L 26.46875 -43.8125 L 26.46875 -37.8125 Z M 15.03125 -37.8125 "/></g></g></g><g fill="#ffffff" fill-opacity="1"><g transform="translate(1156.367113, 1281.03903)"><g><path d="M 3.4375 -22.0625 C 3.4375 -26.539062 4.34375 -30.472656 6.15625 -33.859375 C 7.96875 -37.242188 10.457031 -39.867188 13.625 -41.734375 C 16.800781 -43.597656 20.332031 -44.53125 24.21875 -44.53125 C 28.0625 -44.53125 31.394531 -43.703125 34.21875 -42.046875 C 37.039062 -40.398438 39.144531 -38.320312 40.53125 -35.8125 L 40.53125 -43.8125 L 47.890625 -43.8125 L 47.890625 0 L 40.53125 0 L 40.53125 -8.15625 C 39.09375 -5.59375 36.945312 -3.472656 34.09375 -1.796875 C 31.25 -0.117188 27.929688 0.71875 24.140625 0.71875 C 20.253906 0.71875 16.738281 -0.238281 13.59375 -2.15625 C 10.445312 -4.070312 7.96875 -6.765625 6.15625 -10.234375 C 4.34375 -13.703125 3.4375 -17.644531 3.4375 -22.0625 Z M 40.53125 -21.984375 C 40.53125 -25.285156 39.863281 -28.160156 38.53125 -30.609375 C 37.195312 -33.066406 35.398438 -34.945312 33.140625 -36.25 C 30.878906 -37.5625 28.390625 -38.21875 25.671875 -38.21875 C 22.953125 -38.21875 20.472656 -37.578125 18.234375 -36.296875 C 15.992188 -35.015625 14.207031 -33.148438 12.875 -30.703125 C 11.539062 -28.253906 10.875 -25.375 10.875 -22.0625 C 10.875 -18.707031 11.539062 -15.789062 12.875 -13.3125 C 14.207031 -10.832031 15.992188 -8.9375 18.234375 -7.625 C 20.472656 -6.320312 22.953125 -5.671875 25.671875 -5.671875 C 28.390625 -5.671875 30.878906 -6.320312 33.140625 -7.625 C 35.398438 -8.9375 37.195312 -10.832031 38.53125 -13.3125 C 39.863281 -15.789062 40.53125 -18.679688 40.53125 -21.984375 Z M 40.53125 -21.984375 "/></g></g></g><g fill="#ffffff" fill-opacity="1"><g transform="translate(1210.417841, 1281.03903)"><g><path d="M 27.5 -44.609375 C 32.832031 -44.609375 37.148438 -42.992188 40.453125 -39.765625 C 43.753906 -36.546875 45.40625 -31.898438 45.40625 -25.828125 L 45.40625 0 L 38.21875 0 L 38.21875 -24.78125 C 38.21875 -29.15625 37.125 -32.5 34.9375 -34.8125 C 32.75 -37.132812 29.765625 -38.296875 25.984375 -38.296875 C 22.148438 -38.296875 19.097656 -37.097656 16.828125 -34.703125 C 14.566406 -32.304688 13.4375 -28.8125 13.4375 -24.21875 L 13.4375 0 L 6.15625 0 L 6.15625 -43.8125 L 13.4375 -43.8125 L 13.4375 -37.578125 C 14.875 -39.816406 16.832031 -41.546875 19.3125 -42.765625 C 21.789062 -43.992188 24.519531 -44.609375 27.5 -44.609375 Z M 27.5 -44.609375 "/></g></g></g><g fill="#ffffff" fill-opacity="1"><g transform="translate(1261.590103, 1281.03903)"><g><path d="M 15.03125 -37.8125 L 15.03125 -12 C 15.03125 -9.863281 15.484375 -8.351562 16.390625 -7.46875 C 17.296875 -6.59375 18.867188 -6.15625 21.109375 -6.15625 L 26.46875 -6.15625 L 26.46875 0 L 19.90625 0 C 15.851562 0 12.8125 -0.929688 10.78125 -2.796875 C 8.757812 -4.660156 7.75 -7.726562 7.75 -12 L 7.75 -37.8125 L 2.078125 -37.8125 L 2.078125 -43.8125 L 7.75 -43.8125 L 7.75 -54.84375 L 15.03125 -54.84375 L 15.03125 -43.8125 L 26.46875 -43.8125 L 26.46875 -37.8125 Z M 15.03125 -37.8125 "/></g></g></g><g fill="#ffffff" fill-opacity="1"><g transform="translate(1290.694324, 1281.03903)"><g><path d="M 3.4375 -22.0625 C 3.4375 -26.539062 4.34375 -30.472656 6.15625 -33.859375 C 7.96875 -37.242188 10.457031 -39.867188 13.625 -41.734375 C 16.800781 -43.597656 20.332031 -44.53125 24.21875 -44.53125 C 28.0625 -44.53125 31.394531 -43.703125 34.21875 -42.046875 C 37.039062 -40.398438 39.144531 -38.320312 40.53125 -35.8125 L 40.53125 -43.8125 L 47.890625 -43.8125 L 47.890625 0 L 40.53125 0 L 40.53125 -8.15625 C 39.09375 -5.59375 36.945312 -3.472656 34.09375 -1.796875 C 31.25 -0.117188 27.929688 0.71875 24.140625 0.71875 C 20.253906 0.71875 16.738281 -0.238281 13.59375 -2.15625 C 10.445312 -4.070312 7.96875 -6.765625 6.15625 -10.234375 C 4.34375 -13.703125 3.4375 -17.644531 3.4375 -22.0625 Z M 40.53125 -21.984375 C 40.53125 -25.285156 39.863281 -28.160156 38.53125 -30.609375 C 37.195312 -33.066406 35.398438 -34.945312 33.140625 -36.25 C 30.878906 -37.5625 28.390625 -38.21875 25.671875 -38.21875 C 22.953125 -38.21875 20.472656 -37.578125 18.234375 -36.296875 C 15.992188 -35.015625 14.207031 -33.148438 12.875 -30.703125 C 11.539062 -28.253906 10.875 -25.375 10.875 -22.0625 C 10.875 -18.707031 11.539062 -15.789062 12.875 -13.3125 C 14.207031 -10.832031 15.992188 -8.9375 18.234375 -7.625 C 20.472656 -6.320312 22.953125 -5.671875 25.671875 -5.671875 C 28.390625 -5.671875 30.878906 -6.320312 33.140625 -7.625 C 35.398438 -8.9375 37.195312 -10.832031 38.53125 -13.3125 C 39.863281 -15.789062 40.53125 -18.679688 40.53125 -21.984375 Z M 40.53125 -21.984375 "/></g></g></g><g fill="#ffffff" fill-opacity="1"><g transform="translate(1344.745098, 1281.03903)"><g><path d="M 27.5 -44.609375 C 32.832031 -44.609375 37.148438 -42.992188 40.453125 -39.765625 C 43.753906 -36.546875 45.40625 -31.898438 45.40625 -25.828125 L 45.40625 0 L 38.21875 0 L 38.21875 -24.78125 C 38.21875 -29.15625 37.125 -32.5 34.9375 -34.8125 C 32.75 -37.132812 29.765625 -38.296875 25.984375 -38.296875 C 22.148438 -38.296875 19.097656 -37.097656 16.828125 -34.703125 C 14.566406 -32.304688 13.4375 -28.8125 13.4375 -24.21875 L 13.4375 0 L 6.15625 0 L 6.15625 -43.8125 L 13.4375 -43.8125 L 13.4375 -37.578125 C 14.875 -39.816406 16.832031 -41.546875 19.3125 -42.765625 C 21.789062 -43.992188 24.519531 -44.609375 27.5 -44.609375 Z M 27.5 -44.609375 "/></g></g></g><g fill="#ffffff" fill-opacity="1"><g transform="translate(1395.91736, 1281.03903)"><g><path d="M 24.21875 -44.53125 C 28.007812 -44.53125 31.328125 -43.703125 34.171875 -42.046875 C 37.023438 -40.398438 39.144531 -38.320312 40.53125 -35.8125 L 40.53125 -43.8125 L 47.890625 -43.8125 L 47.890625 0.953125 C 47.890625 4.953125 47.035156 8.507812 45.328125 11.625 C 43.628906 14.75 41.191406 17.191406 38.015625 18.953125 C 34.847656 20.710938 31.15625 21.59375 26.9375 21.59375 C 21.1875 21.59375 16.390625 20.234375 12.546875 17.515625 C 8.710938 14.796875 6.445312 11.085938 5.75 6.390625 L 12.953125 6.390625 C 13.753906 9.054688 15.40625 11.203125 17.90625 12.828125 C 20.414062 14.453125 23.425781 15.265625 26.9375 15.265625 C 30.9375 15.265625 34.203125 14.007812 36.734375 11.5 C 39.265625 9 40.53125 5.484375 40.53125 0.953125 L 40.53125 -8.234375 C 39.09375 -5.671875 36.960938 -3.535156 34.140625 -1.828125 C 31.316406 -0.128906 28.007812 0.71875 24.21875 0.71875 C 20.332031 0.71875 16.800781 -0.238281 13.625 -2.15625 C 10.457031 -4.070312 7.96875 -6.765625 6.15625 -10.234375 C 4.34375 -13.703125 3.4375 -17.644531 3.4375 -22.0625 C 3.4375 -26.539062 4.34375 -30.472656 6.15625 -33.859375 C 7.96875 -37.242188 10.457031 -39.867188 13.625 -41.734375 C 16.800781 -43.597656 20.332031 -44.53125 24.21875 -44.53125 Z M 40.53125 -21.984375 C 40.53125 -25.285156 39.863281 -28.160156 38.53125 -30.609375 C 37.195312 -33.066406 35.398438 -34.945312 33.140625 -36.25 C 30.878906 -37.5625 28.390625 -38.21875 25.671875 -38.21875 C 22.953125 -38.21875 20.472656 -37.578125 18.234375 -36.296875 C 15.992188 -35.015625 14.207031 -33.148438 12.875 -30.703125 C 11.539062 -28.253906 10.875 -25.375 10.875 -22.0625 C 10.875 -18.707031 11.539062 -15.789062 12.875 -13.3125 C 14.207031 -10.832031 15.992188 -8.9375 18.234375 -7.625 C 20.472656 -6.320312 22.953125 -5.671875 25.671875 -5.671875 C 28.390625 -5.671875 30.878906 -6.320312 33.140625 -7.625 C 35.398438 -8.9375 37.195312 -10.832031 38.53125 -13.3125 C 39.863281 -15.789062 40.53125 -18.679688 40.53125 -21.984375 Z M 40.53125 -21.984375 "/></g></g></g><g fill="#ffffff" fill-opacity="1"><g transform="translate(1449.968042, 1281.03903)"><g/></g></g><g fill="#ffffff" fill-opacity="1"><g transform="translate(1471.319272, 1281.03903)"><g><path d="M 38.9375 -28.78125 C 42.1875 -28.09375 44.796875 -26.476562 46.765625 -23.9375 C 48.742188 -21.40625 49.734375 -18.515625 49.734375 -15.265625 C 49.734375 -10.578125 48.09375 -6.859375 44.8125 -4.109375 C 41.53125 -1.367188 36.960938 0 31.109375 0 L 4.953125 0 L 4.953125 -56.125 L 30.21875 -56.125 C 35.925781 -56.125 40.390625 -54.816406 43.609375 -52.203125 C 46.835938 -49.597656 48.453125 -46.054688 48.453125 -41.578125 C 48.453125 -38.273438 47.582031 -35.53125 45.84375 -33.34375 C 44.113281 -31.15625 41.8125 -29.632812 38.9375 -28.78125 Z M 18.625 -33.421875 L 27.578125 -33.421875 C 29.816406 -33.421875 31.535156 -33.910156 32.734375 -34.890625 C 33.941406 -35.878906 34.546875 -37.332031 34.546875 -39.25 C 34.546875 -41.175781 33.941406 -42.644531 32.734375 -43.65625 C 31.535156 -44.664062 29.816406 -45.171875 27.578125 -45.171875 L 18.625 -45.171875 Z M 28.703125 -11.03125 C 30.992188 -11.03125 32.765625 -11.550781 34.015625 -12.59375 C 35.273438 -13.632812 35.90625 -15.140625 35.90625 -17.109375 C 35.90625 -19.078125 35.25 -20.617188 33.9375 -21.734375 C 32.632812 -22.859375 30.835938 -23.421875 28.546875 -23.421875 L 18.625 -23.421875 L 18.625 -11.03125 Z M 28.703125 -11.03125 "/></g></g></g><g fill="#ffffff" fill-opacity="1"><g transform="translate(1524.010737, 1281.03903)"><g><path d="M 18.625 -56.125 L 18.625 0 L 4.953125 0 L 4.953125 -56.125 Z M 18.625 -56.125 "/></g></g></g><g fill="#ffffff" fill-opacity="1"><g transform="translate(1547.597959, 1281.03903)"><g><path d="M 25.265625 0.5625 C 21.160156 0.5625 17.484375 -0.101562 14.234375 -1.4375 C 10.984375 -2.769531 8.382812 -4.738281 6.4375 -7.34375 C 4.488281 -9.957031 3.460938 -13.109375 3.359375 -16.796875 L 17.90625 -16.796875 C 18.125 -14.710938 18.84375 -13.125 20.0625 -12.03125 C 21.289062 -10.9375 22.890625 -10.390625 24.859375 -10.390625 C 26.890625 -10.390625 28.488281 -10.851562 29.65625 -11.78125 C 30.832031 -12.71875 31.421875 -14.015625 31.421875 -15.671875 C 31.421875 -17.054688 30.953125 -18.203125 30.015625 -19.109375 C 29.085938 -20.015625 27.941406 -20.757812 26.578125 -21.34375 C 25.222656 -21.9375 23.289062 -22.601562 20.78125 -23.34375 C 17.15625 -24.46875 14.195312 -25.585938 11.90625 -26.703125 C 9.613281 -27.828125 7.640625 -29.476562 5.984375 -31.65625 C 4.335938 -33.84375 3.515625 -36.695312 3.515625 -40.21875 C 3.515625 -45.4375 5.40625 -49.523438 9.1875 -52.484375 C 12.976562 -55.441406 17.910156 -56.921875 23.984375 -56.921875 C 30.171875 -56.921875 35.15625 -55.441406 38.9375 -52.484375 C 42.71875 -49.523438 44.742188 -45.410156 45.015625 -40.140625 L 30.21875 -40.140625 C 30.113281 -41.953125 29.445312 -43.375 28.21875 -44.40625 C 27 -45.445312 25.425781 -45.96875 23.5 -45.96875 C 21.851562 -45.96875 20.519531 -45.523438 19.5 -44.640625 C 18.488281 -43.765625 17.984375 -42.503906 17.984375 -40.859375 C 17.984375 -39.046875 18.835938 -37.628906 20.546875 -36.609375 C 22.253906 -35.597656 24.921875 -34.507812 28.546875 -33.34375 C 32.171875 -32.113281 35.113281 -30.9375 37.375 -29.8125 C 39.644531 -28.695312 41.601562 -27.070312 43.25 -24.9375 C 44.90625 -22.8125 45.734375 -20.066406 45.734375 -16.703125 C 45.734375 -13.503906 44.921875 -10.597656 43.296875 -7.984375 C 41.671875 -5.378906 39.3125 -3.300781 36.21875 -1.75 C 33.125 -0.207031 29.472656 0.5625 25.265625 0.5625 Z M 25.265625 0.5625 "/></g></g></g><g fill="#ffffff" fill-opacity="1"><g transform="translate(1596.771324, 1281.03903)"><g><path d="M 18.390625 -56.125 L 18.390625 -22.546875 C 18.390625 -19.191406 19.210938 -16.609375 20.859375 -14.796875 C 22.515625 -12.984375 24.941406 -12.078125 28.140625 -12.078125 C 31.335938 -12.078125 33.789062 -12.984375 35.5 -14.796875 C 37.207031 -16.609375 38.0625 -19.191406 38.0625 -22.546875 L 38.0625 -56.125 L 51.734375 -56.125 L 51.734375 -22.625 C 51.734375 -17.613281 50.664062 -13.375 48.53125 -9.90625 C 46.394531 -6.445312 43.53125 -3.835938 39.9375 -2.078125 C 36.34375 -0.316406 32.332031 0.5625 27.90625 0.5625 C 23.476562 0.5625 19.519531 -0.300781 16.03125 -2.03125 C 12.539062 -3.769531 9.78125 -6.382812 7.75 -9.875 C 5.726562 -13.363281 4.71875 -17.613281 4.71875 -22.625 L 4.71875 -56.125 Z M 18.390625 -56.125 "/></g></g></g><g fill="#ffffff" fill-opacity="1"><g transform="translate(1653.140796, 1281.03903)"><g><path d="M 37.5 0 L 18.625 -24.78125 L 18.625 0 L 4.953125 0 L 4.953125 -56.125 L 18.625 -56.125 L 18.625 -31.5 L 37.34375 -56.125 L 53.40625 -56.125 L 31.65625 -28.625 L 54.203125 0 Z M 37.5 0 "/></g></g></g><g fill="#ffffff" fill-opacity="1"><g transform="translate(1708.870621, 1281.03903)"><g><path d="M 68.515625 -56.125 L 68.515625 0 L 54.84375 0 L 54.84375 -33.65625 L 42.296875 0 L 31.265625 0 L 18.625 -33.734375 L 18.625 0 L 4.953125 0 L 4.953125 -56.125 L 21.109375 -56.125 L 36.859375 -17.265625 L 52.453125 -56.125 Z M 68.515625 -56.125 "/></g></g></g><g fill="#ffffff" fill-opacity="1"><g transform="translate(1782.270842, 1281.03903)"><g><path d="M 39.890625 -9.921875 L 18.953125 -9.921875 L 15.59375 0 L 1.28125 0 L 21.59375 -56.125 L 37.421875 -56.125 L 57.71875 0 L 43.25 0 Z M 36.375 -20.46875 L 29.421875 -41.015625 L 22.546875 -20.46875 Z M 36.375 -20.46875 "/></g></g></g><g fill="#ffffff" fill-opacity="1"><g transform="translate(496.928152, 1392.739381)"><g><path d="M 42.21875 -38.375 C 41.207031 -40.238281 39.753906 -41.664062 37.859375 -42.65625 C 35.960938 -43.644531 33.738281 -44.140625 31.1875 -44.140625 C 26.757812 -44.140625 23.210938 -42.6875 20.546875 -39.78125 C 17.878906 -36.875 16.546875 -32.992188 16.546875 -28.140625 C 16.546875 -22.972656 17.945312 -18.9375 20.75 -16.03125 C 23.550781 -13.125 27.398438 -11.671875 32.296875 -11.671875 C 35.660156 -11.671875 38.5 -12.523438 40.8125 -14.234375 C 43.132812 -15.941406 44.828125 -18.394531 45.890625 -21.59375 L 28.546875 -21.59375 L 28.546875 -31.65625 L 58.28125 -31.65625 L 58.28125 -18.953125 C 57.269531 -15.535156 55.550781 -12.359375 53.125 -9.421875 C 50.695312 -6.492188 47.617188 -4.125 43.890625 -2.3125 C 40.160156 -0.5 35.953125 0.40625 31.265625 0.40625 C 25.722656 0.40625 20.78125 -0.804688 16.4375 -3.234375 C 12.09375 -5.660156 8.707031 -9.03125 6.28125 -13.34375 C 3.851562 -17.664062 2.640625 -22.597656 2.640625 -28.140625 C 2.640625 -33.679688 3.851562 -38.625 6.28125 -42.96875 C 8.707031 -47.3125 12.078125 -50.695312 16.390625 -53.125 C 20.703125 -55.550781 25.632812 -56.765625 31.1875 -56.765625 C 37.894531 -56.765625 43.554688 -55.140625 48.171875 -51.890625 C 52.785156 -48.640625 55.835938 -44.132812 57.328125 -38.375 Z M 42.21875 -38.375 "/></g></g></g><g fill="#ffffff" fill-opacity="1"><g transform="translate(557.855154, 1392.739381)"><g><path d="M 33.578125 0 L 21.90625 -21.1875 L 18.625 -21.1875 L 18.625 0 L 4.953125 0 L 4.953125 -56.125 L 27.90625 -56.125 C 32.332031 -56.125 36.101562 -55.347656 39.21875 -53.796875 C 42.332031 -52.253906 44.660156 -50.140625 46.203125 -47.453125 C 47.753906 -44.765625 48.53125 -41.765625 48.53125 -38.453125 C 48.53125 -34.722656 47.476562 -31.390625 45.375 -28.453125 C 43.269531 -25.523438 40.164062 -23.453125 36.0625 -22.234375 L 49.015625 0 Z M 18.625 -30.859375 L 27.109375 -30.859375 C 29.609375 -30.859375 31.484375 -31.472656 32.734375 -32.703125 C 33.992188 -33.929688 34.625 -35.660156 34.625 -37.890625 C 34.625 -40.023438 33.992188 -41.707031 32.734375 -42.9375 C 31.484375 -44.164062 29.609375 -44.78125 27.109375 -44.78125 L 18.625 -44.78125 Z M 18.625 -30.859375 "/></g></g></g><g fill="#ffffff" fill-opacity="1"><g transform="translate(609.98692, 1392.739381)"><g><path d="M 31.5 0.5625 C 26.226562 0.5625 21.390625 -0.660156 16.984375 -3.109375 C 12.585938 -5.566406 9.097656 -8.992188 6.515625 -13.390625 C 3.929688 -17.785156 2.640625 -22.726562 2.640625 -28.21875 C 2.640625 -33.707031 3.929688 -38.640625 6.515625 -43.015625 C 9.097656 -47.390625 12.585938 -50.800781 16.984375 -53.25 C 21.390625 -55.695312 26.226562 -56.921875 31.5 -56.921875 C 36.78125 -56.921875 41.617188 -55.695312 46.015625 -53.25 C 50.410156 -50.800781 53.875 -47.390625 56.40625 -43.015625 C 58.9375 -38.640625 60.203125 -33.707031 60.203125 -28.21875 C 60.203125 -22.726562 58.921875 -17.785156 56.359375 -13.390625 C 53.804688 -8.992188 50.34375 -5.566406 45.96875 -3.109375 C 41.601562 -0.660156 36.78125 0.5625 31.5 0.5625 Z M 31.5 -11.90625 C 35.976562 -11.90625 39.5625 -13.398438 42.25 -16.390625 C 44.945312 -19.378906 46.296875 -23.320312 46.296875 -28.21875 C 46.296875 -33.175781 44.945312 -37.132812 42.25 -40.09375 C 39.5625 -43.050781 35.976562 -44.53125 31.5 -44.53125 C 26.96875 -44.53125 23.351562 -43.0625 20.65625 -40.125 C 17.96875 -37.195312 16.625 -33.226562 16.625 -28.21875 C 16.625 -23.257812 17.96875 -19.300781 20.65625 -16.34375 C 23.351562 -13.382812 26.96875 -11.90625 31.5 -11.90625 Z M 31.5 -11.90625 "/></g></g></g><g fill="#ffffff" fill-opacity="1"><g transform="translate(672.832883, 1392.739381)"><g><path d="M 18.390625 -56.125 L 18.390625 -22.546875 C 18.390625 -19.191406 19.210938 -16.609375 20.859375 -14.796875 C 22.515625 -12.984375 24.941406 -12.078125 28.140625 -12.078125 C 31.335938 -12.078125 33.789062 -12.984375 35.5 -14.796875 C 37.207031 -16.609375 38.0625 -19.191406 38.0625 -22.546875 L 38.0625 -56.125 L 51.734375 -56.125 L 51.734375 -22.625 C 51.734375 -17.613281 50.664062 -13.375 48.53125 -9.90625 C 46.394531 -6.445312 43.53125 -3.835938 39.9375 -2.078125 C 36.34375 -0.316406 32.332031 0.5625 27.90625 0.5625 C 23.476562 0.5625 19.519531 -0.300781 16.03125 -2.03125 C 12.539062 -3.769531 9.78125 -6.382812 7.75 -9.875 C 5.726562 -13.363281 4.71875 -17.613281 4.71875 -22.625 L 4.71875 -56.125 Z M 18.390625 -56.125 "/></g></g></g><g fill="#ffffff" fill-opacity="1"><g transform="translate(729.202367, 1392.739381)"><g><path d="M 47.734375 -38.0625 C 47.734375 -34.8125 46.984375 -31.835938 45.484375 -29.140625 C 43.992188 -26.453125 41.703125 -24.28125 38.609375 -22.625 C 35.523438 -20.96875 31.691406 -20.140625 27.109375 -20.140625 L 18.625 -20.140625 L 18.625 0 L 4.953125 0 L 4.953125 -56.125 L 27.109375 -56.125 C 31.578125 -56.125 35.359375 -55.347656 38.453125 -53.796875 C 41.546875 -52.253906 43.863281 -50.125 45.40625 -47.40625 C 46.957031 -44.6875 47.734375 -41.570312 47.734375 -38.0625 Z M 26.0625 -31.015625 C 28.675781 -31.015625 30.617188 -31.628906 31.890625 -32.859375 C 33.171875 -34.085938 33.8125 -35.820312 33.8125 -38.0625 C 33.8125 -40.300781 33.171875 -42.03125 31.890625 -43.25 C 30.617188 -44.476562 28.675781 -45.09375 26.0625 -45.09375 L 18.625 -45.09375 L 18.625 -31.015625 Z M 26.0625 -31.015625 "/></g></g></g><g fill="#ffffff" fill-opacity="1"><g transform="translate(779.095702, 1392.739381)"><g/></g></g><g fill="#ffffff" fill-opacity="1"><g transform="translate(800.444139, 1392.739381)"><g><path d="M 3.4375 -22.0625 C 3.4375 -26.539062 4.34375 -30.472656 6.15625 -33.859375 C 7.96875 -37.242188 10.457031 -39.867188 13.625 -41.734375 C 16.800781 -43.597656 20.363281 -44.53125 24.3125 -44.53125 C 27.71875 -44.53125 30.882812 -43.742188 33.8125 -42.171875 C 36.75 -40.597656 38.988281 -38.535156 40.53125 -35.984375 L 40.53125 -59.171875 L 47.890625 -59.171875 L 47.890625 0 L 40.53125 0 L 40.53125 -8.234375 C 39.09375 -5.617188 36.960938 -3.472656 34.140625 -1.796875 C 31.316406 -0.117188 28.007812 0.71875 24.21875 0.71875 C 20.332031 0.71875 16.800781 -0.238281 13.625 -2.15625 C 10.457031 -4.070312 7.96875 -6.765625 6.15625 -10.234375 C 4.34375 -13.703125 3.4375 -17.644531 3.4375 -22.0625 Z M 40.53125 -21.984375 C 40.53125 -25.285156 39.863281 -28.160156 38.53125 -30.609375 C 37.195312 -33.066406 35.398438 -34.945312 33.140625 -36.25 C 30.878906 -37.5625 28.390625 -38.21875 25.671875 -38.21875 C 22.953125 -38.21875 20.472656 -37.578125 18.234375 -36.296875 C 15.992188 -35.015625 14.207031 -33.148438 12.875 -30.703125 C 11.539062 -28.253906 10.875 -25.375 10.875 -22.0625 C 10.875 -18.707031 11.539062 -15.789062 12.875 -13.3125 C 14.207031 -10.832031 15.992188 -8.9375 18.234375 -7.625 C 20.472656 -6.320312 22.953125 -5.671875 25.671875 -5.671875 C 28.390625 -5.671875 30.878906 -6.320312 33.140625 -7.625 C 35.398438 -8.9375 37.195312 -10.832031 38.53125 -13.3125 C 39.863281 -15.789062 40.53125 -18.679688 40.53125 -21.984375 Z M 40.53125 -21.984375 "/></g></g></g><g fill="#ffffff" fill-opacity="1"><g transform="translate(854.494867, 1392.739381)"><g><path d="M 3.4375 -22.0625 C 3.4375 -26.539062 4.34375 -30.472656 6.15625 -33.859375 C 7.96875 -37.242188 10.457031 -39.867188 13.625 -41.734375 C 16.800781 -43.597656 20.332031 -44.53125 24.21875 -44.53125 C 28.0625 -44.53125 31.394531 -43.703125 34.21875 -42.046875 C 37.039062 -40.398438 39.144531 -38.320312 40.53125 -35.8125 L 40.53125 -43.8125 L 47.890625 -43.8125 L 47.890625 0 L 40.53125 0 L 40.53125 -8.15625 C 39.09375 -5.59375 36.945312 -3.472656 34.09375 -1.796875 C 31.25 -0.117188 27.929688 0.71875 24.140625 0.71875 C 20.253906 0.71875 16.738281 -0.238281 13.59375 -2.15625 C 10.445312 -4.070312 7.96875 -6.765625 6.15625 -10.234375 C 4.34375 -13.703125 3.4375 -17.644531 3.4375 -22.0625 Z M 40.53125 -21.984375 C 40.53125 -25.285156 39.863281 -28.160156 38.53125 -30.609375 C 37.195312 -33.066406 35.398438 -34.945312 33.140625 -36.25 C 30.878906 -37.5625 28.390625 -38.21875 25.671875 -38.21875 C 22.953125 -38.21875 20.472656 -37.578125 18.234375 -36.296875 C 15.992188 -35.015625 14.207031 -33.148438 12.875 -30.703125 C 11.539062 -28.253906 10.875 -25.375 10.875 -22.0625 C 10.875 -18.707031 11.539062 -15.789062 12.875 -13.3125 C 14.207031 -10.832031 15.992188 -8.9375 18.234375 -7.625 C 20.472656 -6.320312 22.953125 -5.671875 25.671875 -5.671875 C 28.390625 -5.671875 30.878906 -6.320312 33.140625 -7.625 C 35.398438 -8.9375 37.195312 -10.832031 38.53125 -13.3125 C 39.863281 -15.789062 40.53125 -18.679688 40.53125 -21.984375 Z M 40.53125 -21.984375 "/></g></g></g><g fill="#ffffff" fill-opacity="1"><g transform="translate(908.545595, 1392.739381)"><g><path d="M 13.4375 -36.703125 C 14.707031 -39.203125 16.53125 -41.144531 18.90625 -42.53125 C 21.28125 -43.914062 24.171875 -44.609375 27.578125 -44.609375 L 27.578125 -37.09375 L 25.671875 -37.09375 C 17.515625 -37.09375 13.4375 -32.671875 13.4375 -23.828125 L 13.4375 0 L 6.15625 0 L 6.15625 -43.8125 L 13.4375 -43.8125 Z M 13.4375 -36.703125 "/></g></g></g><g fill="#ffffff" fill-opacity="1"><g transform="translate(938.369443, 1392.739381)"><g><path d="M 9.921875 -50.9375 C 8.523438 -50.9375 7.347656 -51.414062 6.390625 -52.375 C 5.429688 -53.332031 4.953125 -54.503906 4.953125 -55.890625 C 4.953125 -57.273438 5.429688 -58.445312 6.390625 -59.40625 C 7.347656 -60.363281 8.523438 -60.84375 9.921875 -60.84375 C 11.242188 -60.84375 12.375 -60.363281 13.3125 -59.40625 C 14.25 -58.445312 14.71875 -57.273438 14.71875 -55.890625 C 14.71875 -54.503906 14.25 -53.332031 13.3125 -52.375 C 12.375 -51.414062 11.242188 -50.9375 9.921875 -50.9375 Z M 13.4375 -43.8125 L 13.4375 0 L 6.15625 0 L 6.15625 -43.8125 Z M 13.4375 -43.8125 "/></g></g></g><g fill="#ffffff" fill-opacity="1"><g transform="translate(958.038793, 1392.739381)"><g/></g></g><g fill="#ffffff" fill-opacity="1"><g transform="translate(979.38723, 1392.739381)"><g><path d="M 21.671875 0.71875 C 18.304688 0.71875 15.289062 0.144531 12.625 -1 C 9.96875 -2.144531 7.863281 -3.742188 6.3125 -5.796875 C 4.769531 -7.847656 3.914062 -10.207031 3.75 -12.875 L 11.265625 -12.875 C 11.484375 -10.6875 12.507812 -8.898438 14.34375 -7.515625 C 16.1875 -6.128906 18.601562 -5.4375 21.59375 -5.4375 C 24.363281 -5.4375 26.546875 -6.046875 28.140625 -7.265625 C 29.742188 -8.492188 30.546875 -10.039062 30.546875 -11.90625 C 30.546875 -13.832031 29.691406 -15.257812 27.984375 -16.1875 C 26.273438 -17.125 23.632812 -18.046875 20.0625 -18.953125 C 16.8125 -19.804688 14.160156 -20.671875 12.109375 -21.546875 C 10.054688 -22.421875 8.296875 -23.722656 6.828125 -25.453125 C 5.367188 -27.191406 4.640625 -29.472656 4.640625 -32.296875 C 4.640625 -34.535156 5.304688 -36.585938 6.640625 -38.453125 C 7.972656 -40.316406 9.863281 -41.796875 12.3125 -42.890625 C 14.757812 -43.984375 17.554688 -44.53125 20.703125 -44.53125 C 25.554688 -44.53125 29.472656 -43.300781 32.453125 -40.84375 C 35.441406 -38.394531 37.046875 -35.039062 37.265625 -30.78125 L 29.984375 -30.78125 C 29.828125 -33.070312 28.90625 -34.910156 27.21875 -36.296875 C 25.539062 -37.679688 23.289062 -38.375 20.46875 -38.375 C 17.851562 -38.375 15.769531 -37.8125 14.21875 -36.6875 C 12.675781 -35.570312 11.90625 -34.109375 11.90625 -32.296875 C 11.90625 -30.859375 12.375 -29.671875 13.3125 -28.734375 C 14.25 -27.804688 15.421875 -27.0625 16.828125 -26.5 C 18.242188 -25.945312 20.203125 -25.320312 22.703125 -24.625 C 25.847656 -23.769531 28.40625 -22.929688 30.375 -22.109375 C 32.351562 -21.285156 34.046875 -20.046875 35.453125 -18.390625 C 36.867188 -16.734375 37.601562 -14.570312 37.65625 -11.90625 C 37.65625 -9.507812 36.988281 -7.351562 35.65625 -5.4375 C 34.320312 -3.519531 32.441406 -2.015625 30.015625 -0.921875 C 27.597656 0.171875 24.816406 0.71875 21.671875 0.71875 Z M 21.671875 0.71875 "/></g></g></g><g fill="#ffffff" fill-opacity="1"><g transform="translate(1021.124622, 1392.739381)"><g><path d="M 45.015625 -43.8125 L 45.015625 0 L 37.734375 0 L 37.734375 -6.46875 C 36.347656 -4.238281 34.414062 -2.492188 31.9375 -1.234375 C 29.457031 0.015625 26.726562 0.640625 23.75 0.640625 C 20.332031 0.640625 17.265625 -0.0625 14.546875 -1.46875 C 11.828125 -2.882812 9.679688 -5.003906 8.109375 -7.828125 C 6.535156 -10.660156 5.75 -14.101562 5.75 -18.15625 L 5.75 -43.8125 L 12.953125 -43.8125 L 12.953125 -19.109375 C 12.953125 -14.785156 14.046875 -11.460938 16.234375 -9.140625 C 18.421875 -6.828125 21.40625 -5.671875 25.1875 -5.671875 C 29.070312 -5.671875 32.132812 -6.867188 34.375 -9.265625 C 36.613281 -11.671875 37.734375 -15.164062 37.734375 -19.75 L 37.734375 -43.8125 Z M 45.015625 -43.8125 "/></g></g></g><g fill="#ffffff" fill-opacity="1"><g transform="translate(1072.296907, 1392.739381)"><g><path d="M 58.84375 -44.609375 C 62.257812 -44.609375 65.296875 -43.898438 67.953125 -42.484375 C 70.617188 -41.078125 72.722656 -38.960938 74.265625 -36.140625 C 75.816406 -33.316406 76.59375 -29.878906 76.59375 -25.828125 L 76.59375 0 L 69.40625 0 L 69.40625 -24.78125 C 69.40625 -29.15625 68.320312 -32.5 66.15625 -34.8125 C 64 -37.132812 61.082031 -38.296875 57.40625 -38.296875 C 53.625 -38.296875 50.613281 -37.082031 48.375 -34.65625 C 46.132812 -32.226562 45.015625 -28.722656 45.015625 -24.140625 L 45.015625 0 L 37.8125 0 L 37.8125 -24.78125 C 37.8125 -29.15625 36.734375 -32.5 34.578125 -34.8125 C 32.421875 -37.132812 29.503906 -38.296875 25.828125 -38.296875 C 22.035156 -38.296875 19.019531 -37.082031 16.78125 -34.65625 C 14.550781 -32.226562 13.4375 -28.722656 13.4375 -24.140625 L 13.4375 0 L 6.15625 0 L 6.15625 -43.8125 L 13.4375 -43.8125 L 13.4375 -37.5 C 14.875 -39.789062 16.800781 -41.546875 19.21875 -42.765625 C 21.644531 -43.992188 24.328125 -44.609375 27.265625 -44.609375 C 30.941406 -44.609375 34.191406 -43.78125 37.015625 -42.125 C 39.835938 -40.476562 41.941406 -38.054688 43.328125 -34.859375 C 44.554688 -37.953125 46.582031 -40.347656 49.40625 -42.046875 C 52.238281 -43.753906 55.382812 -44.609375 58.84375 -44.609375 Z M 58.84375 -44.609375 "/></g></g></g><g fill="#ffffff" fill-opacity="1"><g transform="translate(1154.652315, 1392.739381)"><g><path d="M 13.4375 -35.65625 C 14.925781 -38.269531 17.109375 -40.398438 19.984375 -42.046875 C 22.867188 -43.703125 26.148438 -44.53125 29.828125 -44.53125 C 33.765625 -44.53125 37.304688 -43.597656 40.453125 -41.734375 C 43.597656 -39.867188 46.078125 -37.242188 47.890625 -33.859375 C 49.703125 -30.472656 50.609375 -26.539062 50.609375 -22.0625 C 50.609375 -17.644531 49.703125 -13.703125 47.890625 -10.234375 C 46.078125 -6.765625 43.582031 -4.070312 40.40625 -2.15625 C 37.238281 -0.238281 33.710938 0.71875 29.828125 0.71875 C 26.035156 0.71875 22.710938 -0.101562 19.859375 -1.75 C 17.015625 -3.40625 14.875 -5.515625 13.4375 -8.078125 L 13.4375 0 L 6.15625 0 L 6.15625 -59.171875 L 13.4375 -59.171875 Z M 43.171875 -22.0625 C 43.171875 -25.375 42.503906 -28.253906 41.171875 -30.703125 C 39.835938 -33.148438 38.035156 -35.015625 35.765625 -36.296875 C 33.503906 -37.578125 31.015625 -38.21875 28.296875 -38.21875 C 25.640625 -38.21875 23.175781 -37.5625 20.90625 -36.25 C 18.644531 -34.945312 16.832031 -33.054688 15.46875 -30.578125 C 14.113281 -28.097656 13.4375 -25.234375 13.4375 -21.984375 C 13.4375 -18.679688 14.113281 -15.789062 15.46875 -13.3125 C 16.832031 -10.832031 18.644531 -8.9375 20.90625 -7.625 C 23.175781 -6.320312 25.640625 -5.671875 28.296875 -5.671875 C 31.015625 -5.671875 33.503906 -6.320312 35.765625 -7.625 C 38.035156 -8.9375 39.835938 -10.832031 41.171875 -13.3125 C 42.503906 -15.789062 43.171875 -18.707031 43.171875 -22.0625 Z M 43.171875 -22.0625 "/></g></g></g><g fill="#ffffff" fill-opacity="1"><g transform="translate(1208.703043, 1392.739381)"><g><path d="M 46.140625 -23.59375 C 46.140625 -22.195312 46.054688 -20.726562 45.890625 -19.1875 L 10.875 -19.1875 C 11.132812 -14.875 12.609375 -11.503906 15.296875 -9.078125 C 17.992188 -6.648438 21.265625 -5.4375 25.109375 -5.4375 C 28.253906 -5.4375 30.878906 -6.164062 32.984375 -7.625 C 35.085938 -9.09375 36.566406 -11.054688 37.421875 -13.515625 L 45.25 -13.515625 C 44.082031 -9.304688 41.738281 -5.878906 38.21875 -3.234375 C 34.695312 -0.597656 30.328125 0.71875 25.109375 0.71875 C 20.953125 0.71875 17.234375 -0.210938 13.953125 -2.078125 C 10.671875 -3.941406 8.097656 -6.59375 6.234375 -10.03125 C 4.367188 -13.46875 3.4375 -17.453125 3.4375 -21.984375 C 3.4375 -26.515625 4.34375 -30.484375 6.15625 -33.890625 C 7.96875 -37.304688 10.507812 -39.929688 13.78125 -41.765625 C 17.0625 -43.609375 20.835938 -44.53125 25.109375 -44.53125 C 29.265625 -44.53125 32.941406 -43.625 36.140625 -41.8125 C 39.335938 -40 41.800781 -37.503906 43.53125 -34.328125 C 45.269531 -31.160156 46.140625 -27.582031 46.140625 -23.59375 Z M 38.625 -25.109375 C 38.625 -27.878906 38.007812 -30.265625 36.78125 -32.265625 C 35.550781 -34.265625 33.882812 -35.78125 31.78125 -36.8125 C 29.675781 -37.851562 27.34375 -38.375 24.78125 -38.375 C 21.101562 -38.375 17.972656 -37.203125 15.390625 -34.859375 C 12.804688 -32.515625 11.328125 -29.265625 10.953125 -25.109375 Z M 38.625 -25.109375 "/></g></g></g><g fill="#ffffff" fill-opacity="1"><g transform="translate(1258.276177, 1392.739381)"><g><path d="M 13.4375 -36.703125 C 14.707031 -39.203125 16.53125 -41.144531 18.90625 -42.53125 C 21.28125 -43.914062 24.171875 -44.609375 27.578125 -44.609375 L 27.578125 -37.09375 L 25.671875 -37.09375 C 17.515625 -37.09375 13.4375 -32.671875 13.4375 -23.828125 L 13.4375 0 L 6.15625 0 L 6.15625 -43.8125 L 13.4375 -43.8125 Z M 13.4375 -36.703125 "/></g></g></g><g fill="#ffffff" fill-opacity="1"><g transform="translate(1288.100049, 1392.739381)"><g/></g></g><g fill="#ffffff" fill-opacity="1"><g transform="translate(1309.44844, 1392.739381)"><g><path d="M 15.03125 -37.8125 L 15.03125 -12 C 15.03125 -9.863281 15.484375 -8.351562 16.390625 -7.46875 C 17.296875 -6.59375 18.867188 -6.15625 21.109375 -6.15625 L 26.46875 -6.15625 L 26.46875 0 L 19.90625 0 C 15.851562 0 12.8125 -0.929688 10.78125 -2.796875 C 8.757812 -4.660156 7.75 -7.726562 7.75 -12 L 7.75 -37.8125 L 2.078125 -37.8125 L 2.078125 -43.8125 L 7.75 -43.8125 L 7.75 -54.84375 L 15.03125 -54.84375 L 15.03125 -43.8125 L 26.46875 -43.8125 L 26.46875 -37.8125 Z M 15.03125 -37.8125 "/></g></g></g><g fill="#ffffff" fill-opacity="1"><g transform="translate(1338.552706, 1392.739381)"><g><path d="M 46.140625 -23.59375 C 46.140625 -22.195312 46.054688 -20.726562 45.890625 -19.1875 L 10.875 -19.1875 C 11.132812 -14.875 12.609375 -11.503906 15.296875 -9.078125 C 17.992188 -6.648438 21.265625 -5.4375 25.109375 -5.4375 C 28.253906 -5.4375 30.878906 -6.164062 32.984375 -7.625 C 35.085938 -9.09375 36.566406 -11.054688 37.421875 -13.515625 L 45.25 -13.515625 C 44.082031 -9.304688 41.738281 -5.878906 38.21875 -3.234375 C 34.695312 -0.597656 30.328125 0.71875 25.109375 0.71875 C 20.953125 0.71875 17.234375 -0.210938 13.953125 -2.078125 C 10.671875 -3.941406 8.097656 -6.59375 6.234375 -10.03125 C 4.367188 -13.46875 3.4375 -17.453125 3.4375 -21.984375 C 3.4375 -26.515625 4.34375 -30.484375 6.15625 -33.890625 C 7.96875 -37.304688 10.507812 -39.929688 13.78125 -41.765625 C 17.0625 -43.609375 20.835938 -44.53125 25.109375 -44.53125 C 29.265625 -44.53125 32.941406 -43.625 36.140625 -41.8125 C 39.335938 -40 41.800781 -37.503906 43.53125 -34.328125 C 45.269531 -31.160156 46.140625 -27.582031 46.140625 -23.59375 Z M 38.625 -25.109375 C 38.625 -27.878906 38.007812 -30.265625 36.78125 -32.265625 C 35.550781 -34.265625 33.882812 -35.78125 31.78125 -36.8125 C 29.675781 -37.851562 27.34375 -38.375 24.78125 -38.375 C 21.101562 -38.375 17.972656 -37.203125 15.390625 -34.859375 C 12.804688 -32.515625 11.328125 -29.265625 10.953125 -25.109375 Z M 38.625 -25.109375 "/></g></g></g><g fill="#ffffff" fill-opacity="1"><g transform="translate(1388.125841, 1392.739381)"><g><path d="M 13.4375 -36.703125 C 14.707031 -39.203125 16.53125 -41.144531 18.90625 -42.53125 C 21.28125 -43.914062 24.171875 -44.609375 27.578125 -44.609375 L 27.578125 -37.09375 L 25.671875 -37.09375 C 17.515625 -37.09375 13.4375 -32.671875 13.4375 -23.828125 L 13.4375 0 L 6.15625 0 L 6.15625 -43.8125 L 13.4375 -43.8125 Z M 13.4375 -36.703125 "/></g></g></g><g fill="#ffffff" fill-opacity="1"><g transform="translate(1417.949712, 1392.739381)"><g><path d="M 13.4375 -35.734375 C 14.875 -38.242188 17.015625 -40.335938 19.859375 -42.015625 C 22.710938 -43.691406 26.035156 -44.53125 29.828125 -44.53125 C 33.710938 -44.53125 37.238281 -43.597656 40.40625 -41.734375 C 43.582031 -39.867188 46.078125 -37.242188 47.890625 -33.859375 C 49.703125 -30.472656 50.609375 -26.539062 50.609375 -22.0625 C 50.609375 -17.644531 49.703125 -13.703125 47.890625 -10.234375 C 46.078125 -6.765625 43.582031 -4.070312 40.40625 -2.15625 C 37.238281 -0.238281 33.710938 0.71875 29.828125 0.71875 C 26.085938 0.71875 22.789062 -0.117188 19.9375 -1.796875 C 17.09375 -3.472656 14.925781 -5.566406 13.4375 -8.078125 L 13.4375 20.78125 L 6.15625 20.78125 L 6.15625 -43.8125 L 13.4375 -43.8125 Z M 43.171875 -22.0625 C 43.171875 -25.375 42.503906 -28.253906 41.171875 -30.703125 C 39.835938 -33.148438 38.035156 -35.015625 35.765625 -36.296875 C 33.503906 -37.578125 31.015625 -38.21875 28.296875 -38.21875 C 25.640625 -38.21875 23.175781 -37.5625 20.90625 -36.25 C 18.644531 -34.945312 16.832031 -33.054688 15.46875 -30.578125 C 14.113281 -28.097656 13.4375 -25.234375 13.4375 -21.984375 C 13.4375 -18.679688 14.113281 -15.789062 15.46875 -13.3125 C 16.832031 -10.832031 18.644531 -8.9375 20.90625 -7.625 C 23.175781 -6.320312 25.640625 -5.671875 28.296875 -5.671875 C 31.015625 -5.671875 33.503906 -6.320312 35.765625 -7.625 C 38.035156 -8.9375 39.835938 -10.832031 41.171875 -13.3125 C 42.503906 -15.789062 43.171875 -18.707031 43.171875 -22.0625 Z M 43.171875 -22.0625 "/></g></g></g><g fill="#ffffff" fill-opacity="1"><g transform="translate(1472.000395, 1392.739381)"><g><path d="M 46.140625 -23.59375 C 46.140625 -22.195312 46.054688 -20.726562 45.890625 -19.1875 L 10.875 -19.1875 C 11.132812 -14.875 12.609375 -11.503906 15.296875 -9.078125 C 17.992188 -6.648438 21.265625 -5.4375 25.109375 -5.4375 C 28.253906 -5.4375 30.878906 -6.164062 32.984375 -7.625 C 35.085938 -9.09375 36.566406 -11.054688 37.421875 -13.515625 L 45.25 -13.515625 C 44.082031 -9.304688 41.738281 -5.878906 38.21875 -3.234375 C 34.695312 -0.597656 30.328125 0.71875 25.109375 0.71875 C 20.953125 0.71875 17.234375 -0.210938 13.953125 -2.078125 C 10.671875 -3.941406 8.097656 -6.59375 6.234375 -10.03125 C 4.367188 -13.46875 3.4375 -17.453125 3.4375 -21.984375 C 3.4375 -26.515625 4.34375 -30.484375 6.15625 -33.890625 C 7.96875 -37.304688 10.507812 -39.929688 13.78125 -41.765625 C 17.0625 -43.609375 20.835938 -44.53125 25.109375 -44.53125 C 29.265625 -44.53125 32.941406 -43.625 36.140625 -41.8125 C 39.335938 -40 41.800781 -37.503906 43.53125 -34.328125 C 45.269531 -31.160156 46.140625 -27.582031 46.140625 -23.59375 Z M 38.625 -25.109375 C 38.625 -27.878906 38.007812 -30.265625 36.78125 -32.265625 C 35.550781 -34.265625 33.882812 -35.78125 31.78125 -36.8125 C 29.675781 -37.851562 27.34375 -38.375 24.78125 -38.375 C 21.101562 -38.375 17.972656 -37.203125 15.390625 -34.859375 C 12.804688 -32.515625 11.328125 -29.265625 10.953125 -25.109375 Z M 38.625 -25.109375 "/></g></g></g><g fill="#ffffff" fill-opacity="1"><g transform="translate(1521.573575, 1392.739381)"><g><path d="M 13.4375 -36.703125 C 14.707031 -39.203125 16.53125 -41.144531 18.90625 -42.53125 C 21.28125 -43.914062 24.171875 -44.609375 27.578125 -44.609375 L 27.578125 -37.09375 L 25.671875 -37.09375 C 17.515625 -37.09375 13.4375 -32.671875 13.4375 -23.828125 L 13.4375 0 L 6.15625 0 L 6.15625 -43.8125 L 13.4375 -43.8125 Z M 13.4375 -36.703125 "/></g></g></g><g fill="#ffffff" fill-opacity="1"><g transform="translate(1551.397447, 1392.739381)"><g><path d="M 3.4375 -21.984375 C 3.4375 -26.515625 4.34375 -30.472656 6.15625 -33.859375 C 7.96875 -37.242188 10.484375 -39.867188 13.703125 -41.734375 C 16.929688 -43.597656 20.625 -44.53125 24.78125 -44.53125 C 30.164062 -44.53125 34.601562 -43.222656 38.09375 -40.609375 C 41.582031 -38.003906 43.890625 -34.382812 45.015625 -29.75 L 37.171875 -29.75 C 36.429688 -32.40625 34.976562 -34.503906 32.8125 -36.046875 C 30.65625 -37.597656 27.976562 -38.375 24.78125 -38.375 C 20.625 -38.375 17.265625 -36.945312 14.703125 -34.09375 C 12.148438 -31.25 10.875 -27.210938 10.875 -21.984375 C 10.875 -16.710938 12.148438 -12.632812 14.703125 -9.75 C 17.265625 -6.875 20.625 -5.4375 24.78125 -5.4375 C 27.976562 -5.4375 30.644531 -6.179688 32.78125 -7.671875 C 34.914062 -9.171875 36.378906 -11.304688 37.171875 -14.078125 L 45.015625 -14.078125 C 43.835938 -9.597656 41.488281 -6.007812 37.96875 -3.3125 C 34.457031 -0.625 30.0625 0.71875 24.78125 0.71875 C 20.625 0.71875 16.929688 -0.210938 13.703125 -2.078125 C 10.484375 -3.941406 7.96875 -6.578125 6.15625 -9.984375 C 4.34375 -13.398438 3.4375 -17.398438 3.4375 -21.984375 Z M 3.4375 -21.984375 "/></g></g></g><g fill="#ffffff" fill-opacity="1"><g transform="translate(1599.931141, 1392.739381)"><g><path d="M 3.4375 -22.0625 C 3.4375 -26.539062 4.34375 -30.472656 6.15625 -33.859375 C 7.96875 -37.242188 10.457031 -39.867188 13.625 -41.734375 C 16.800781 -43.597656 20.332031 -44.53125 24.21875 -44.53125 C 28.0625 -44.53125 31.394531 -43.703125 34.21875 -42.046875 C 37.039062 -40.398438 39.144531 -38.320312 40.53125 -35.8125 L 40.53125 -43.8125 L 47.890625 -43.8125 L 47.890625 0 L 40.53125 0 L 40.53125 -8.15625 C 39.09375 -5.59375 36.945312 -3.472656 34.09375 -1.796875 C 31.25 -0.117188 27.929688 0.71875 24.140625 0.71875 C 20.253906 0.71875 16.738281 -0.238281 13.59375 -2.15625 C 10.445312 -4.070312 7.96875 -6.765625 6.15625 -10.234375 C 4.34375 -13.703125 3.4375 -17.644531 3.4375 -22.0625 Z M 40.53125 -21.984375 C 40.53125 -25.285156 39.863281 -28.160156 38.53125 -30.609375 C 37.195312 -33.066406 35.398438 -34.945312 33.140625 -36.25 C 30.878906 -37.5625 28.390625 -38.21875 25.671875 -38.21875 C 22.953125 -38.21875 20.472656 -37.578125 18.234375 -36.296875 C 15.992188 -35.015625 14.207031 -33.148438 12.875 -30.703125 C 11.539062 -28.253906 10.875 -25.375 10.875 -22.0625 C 10.875 -18.707031 11.539062 -15.789062 12.875 -13.3125 C 14.207031 -10.832031 15.992188 -8.9375 18.234375 -7.625 C 20.472656 -6.320312 22.953125 -5.671875 25.671875 -5.671875 C 28.390625 -5.671875 30.878906 -6.320312 33.140625 -7.625 C 35.398438 -8.9375 37.195312 -10.832031 38.53125 -13.3125 C 39.863281 -15.789062 40.53125 -18.679688 40.53125 -21.984375 Z M 40.53125 -21.984375 "/></g></g></g><g fill="#ffffff" fill-opacity="1"><g transform="translate(1653.981824, 1392.739381)"><g><path d="M 43.890625 -43.8125 L 17.515625 20.625 L 10 20.625 L 18.625 -0.484375 L 0.953125 -43.8125 L 9.03125 -43.8125 L 22.78125 -8.3125 L 36.375 -43.8125 Z M 43.890625 -43.8125 "/></g></g></g><g fill="#ffffff" fill-opacity="1"><g transform="translate(1698.997429, 1392.739381)"><g><path d="M 3.4375 -22.0625 C 3.4375 -26.539062 4.34375 -30.472656 6.15625 -33.859375 C 7.96875 -37.242188 10.457031 -39.867188 13.625 -41.734375 C 16.800781 -43.597656 20.332031 -44.53125 24.21875 -44.53125 C 28.0625 -44.53125 31.394531 -43.703125 34.21875 -42.046875 C 37.039062 -40.398438 39.144531 -38.320312 40.53125 -35.8125 L 40.53125 -43.8125 L 47.890625 -43.8125 L 47.890625 0 L 40.53125 0 L 40.53125 -8.15625 C 39.09375 -5.59375 36.945312 -3.472656 34.09375 -1.796875 C 31.25 -0.117188 27.929688 0.71875 24.140625 0.71875 C 20.253906 0.71875 16.738281 -0.238281 13.59375 -2.15625 C 10.445312 -4.070312 7.96875 -6.765625 6.15625 -10.234375 C 4.34375 -13.703125 3.4375 -17.644531 3.4375 -22.0625 Z M 40.53125 -21.984375 C 40.53125 -25.285156 39.863281 -28.160156 38.53125 -30.609375 C 37.195312 -33.066406 35.398438 -34.945312 33.140625 -36.25 C 30.878906 -37.5625 28.390625 -38.21875 25.671875 -38.21875 C 22.953125 -38.21875 20.472656 -37.578125 18.234375 -36.296875 C 15.992188 -35.015625 14.207031 -33.148438 12.875 -30.703125 C 11.539062 -28.253906 10.875 -25.375 10.875 -22.0625 C 10.875 -18.707031 11.539062 -15.789062 12.875 -13.3125 C 14.207031 -10.832031 15.992188 -8.9375 18.234375 -7.625 C 20.472656 -6.320312 22.953125 -5.671875 25.671875 -5.671875 C 28.390625 -5.671875 30.878906 -6.320312 33.140625 -7.625 C 35.398438 -8.9375 37.195312 -10.832031 38.53125 -13.3125 C 39.863281 -15.789062 40.53125 -18.679688 40.53125 -21.984375 Z M 40.53125 -21.984375 "/></g></g></g></svg>